<?xml version="1.0" encoding="UTF-8"?>
<svg xmlns="http://www.w3.org/2000/svg" width="1920" height="1080" viewBox="0 0 1920 1080">
  <defs><style>@font-face { font-family: 'Plus Jakarta Sans'; src: url('assets/PlusJakartaSans-VariableFont_wght.ttf'); font-weight: 200 800; } text { font-family: 'Plus Jakarta Sans', Arial, sans-serif; }</style></defs>
  <rect x="0" y="0" width="1920" height="1080" fill="#F5F5F7"/>
  <image href="assets/logo-light.svg" x="70" y="44" width="300" height="64" preserveAspectRatio="xMidYMid meet"/>
  <text x="1848" y="74" fill="#7042C5" font-size="16" font-weight="800" text-anchor="end" letter-spacing="2">BRAND GUIDELINES · 12 PAGES</text>
  <rect x="70" y="170" width="410" height="230" fill="#FFFFFF" rx="14" stroke="#E8E8ED" stroke-width="2"/><image href="01-cover.svg" x="77" y="177" width="396" height="216" preserveAspectRatio="xMidYMid meet"/><text x="70" y="424" fill="#696C7A" font-size="16" font-weight="650">cover</text><rect x="528" y="170" width="410" height="230" fill="#FFFFFF" rx="14" stroke="#E8E8ED" stroke-width="2"/><image href="02-brand-core.svg" x="535" y="177" width="396" height="216" preserveAspectRatio="xMidYMid meet"/><text x="528" y="424" fill="#696C7A" font-size="16" font-weight="650">brand core</text><rect x="986" y="170" width="410" height="230" fill="#FFFFFF" rx="14" stroke="#E8E8ED" stroke-width="2"/><image href="03-logo-system.svg" x="993" y="177" width="396" height="216" preserveAspectRatio="xMidYMid meet"/><text x="986" y="424" fill="#696C7A" font-size="16" font-weight="650">logo system</text><rect x="1444" y="170" width="410" height="230" fill="#FFFFFF" rx="14" stroke="#E8E8ED" stroke-width="2"/><image href="04-logo-protection.svg" x="1451" y="177" width="396" height="216" preserveAspectRatio="xMidYMid meet"/><text x="1444" y="424" fill="#696C7A" font-size="16" font-weight="650">logo protection</text><rect x="70" y="446" width="410" height="230" fill="#FFFFFF" rx="14" stroke="#E8E8ED" stroke-width="2"/><image href="05-colour-system.svg" x="77" y="453" width="396" height="216" preserveAspectRatio="xMidYMid meet"/><text x="70" y="700" fill="#696C7A" font-size="16" font-weight="650">colour system</text><rect x="528" y="446" width="410" height="230" fill="#FFFFFF" rx="14" stroke="#E8E8ED" stroke-width="2"/><image href="06-colour-accessibility.svg" x="535" y="453" width="396" height="216" preserveAspectRatio="xMidYMid meet"/><text x="528" y="700" fill="#696C7A" font-size="16" font-weight="650">colour accessibility</text><rect x="986" y="446" width="410" height="230" fill="#FFFFFF" rx="14" stroke="#E8E8ED" stroke-width="2"/><image href="07-typography.svg" x="993" y="453" width="396" height="216" preserveAspectRatio="xMidYMid meet"/><text x="986" y="700" fill="#696C7A" font-size="16" font-weight="650">typography</text><rect x="1444" y="446" width="410" height="230" fill="#FFFFFF" rx="14" stroke="#E8E8ED" stroke-width="2"/><image href="08-illustration-system.svg" x="1451" y="453" width="396" height="216" preserveAspectRatio="xMidYMid meet"/><text x="1444" y="700" fill="#696C7A" font-size="16" font-weight="650">illustration system</text><rect x="70" y="722" width="410" height="230" fill="#FFFFFF" rx="14" stroke="#E8E8ED" stroke-width="2"/><image href="09-iconography-and-shapes.svg" x="77" y="729" width="396" height="216" preserveAspectRatio="xMidYMid meet"/><text x="70" y="976" fill="#696C7A" font-size="16" font-weight="650">iconography and shapes</text><rect x="528" y="722" width="410" height="230" fill="#FFFFFF" rx="14" stroke="#E8E8ED" stroke-width="2"/><image href="10-layout-and-digital-composition.svg" x="535" y="729" width="396" height="216" preserveAspectRatio="xMidYMid meet"/><text x="528" y="976" fill="#696C7A" font-size="16" font-weight="650">layout and digital composition</text><rect x="986" y="722" width="410" height="230" fill="#FFFFFF" rx="14" stroke="#E8E8ED" stroke-width="2"/><image href="11-voice-and-writing.svg" x="993" y="729" width="396" height="216" preserveAspectRatio="xMidYMid meet"/><text x="986" y="976" fill="#696C7A" font-size="16" font-weight="650">voice and writing</text><rect x="1444" y="722" width="410" height="230" fill="#FFFFFF" rx="14" stroke="#E8E8ED" stroke-width="2"/><image href="12-applications-and-governance.svg" x="1451" y="729" width="396" height="216" preserveAspectRatio="xMidYMid meet"/><text x="1444" y="976" fill="#696C7A" font-size="16" font-weight="650">applications and governance</text>
</svg>