<?xml version="1.0" encoding="UTF-8"?>
<svg id="Layer_1" xmlns="http://www.w3.org/2000/svg" xmlns:xlink="http://www.w3.org/1999/xlink" version="1.1" viewBox="0 0 1200 630">
  <!-- Generator: Adobe Illustrator 30.3.0, SVG Export Plug-In . SVG Version: 2.1.3 Build 182)  -->
  <defs>
    <style>
      .st0 {
        fill: #f6f0ff;
      }

      .st0, .st1 {
        fill-opacity: .6;
      }

      .st2 {
        stroke: #287fa5;
      }

      .st2, .st3, .st4, .st5 {
        fill: none;
      }

      .st2, .st3, .st5 {
        stroke-width: 3px;
      }

      .st3 {
        stroke: #168463;
        stroke-linejoin: round;
      }

      .st3, .st5 {
        stroke-linecap: round;
      }

      .st6 {
        fill: url(#linear-gradient);
      }

      .st7 {
        font-family: HelveticaNeue, 'Helvetica Neue';
        font-size: 14px;
      }

      .st7, .st8, .st9, .st10 {
        isolation: isolate;
      }

      .st7, .st9 {
        fill: #777281;
      }

      .st11 {
        fill: #191721;
      }

      .st12 {
        fill: #e0f4ec;
      }

      .st13 {
        fill: #342561;
        fill-opacity: .1;
      }

      .st9 {
        font-size: 12px;
      }

      .st9, .st10 {
        font-family: HelveticaNeue-Bold, 'Helvetica Neue';
        font-weight: 700;
      }

      .st14 {
        fill: #e2f2fb;
      }

      .st4 {
        stroke: #e6e1ef;
      }

      .st15 {
        fill: #1f1c29;
      }

      .st16 {
        fill: #e8e2ff;
      }

      .st17 {
        fill: #6d44c1;
      }

      .st1 {
        fill: #fff;
      }

      .st18 {
        fill: #287fa5;
      }

      .st19 {
        fill: url(#linear-gradient1);
        stroke: #d9d2ea;
      }

      .st10 {
        fill: #7c3aed;
        font-size: 13px;
      }

      .st5 {
        stroke: #7c3aed;
      }
    </style>
    <linearGradient id="linear-gradient" x1="-1039.1" y1="-215.3" x2="-1038.1" y2="-214.3" gradientTransform="translate(1246960 135663.9) scale(1200 630)" gradientUnits="userSpaceOnUse">
      <stop offset="0" stop-color="#eee8ff"/>
      <stop offset=".5" stop-color="#faf9ff"/>
      <stop offset="1" stop-color="#eef7ff"/>
    </linearGradient>
    <linearGradient id="linear-gradient1" x1="-1037.1" y1="-214.7" x2="-1036.1" y2="-213.7" gradientTransform="translate(382432 93040) scale(368 433)" gradientUnits="userSpaceOnUse">
      <stop offset="0" stop-color="#fff"/>
      <stop offset="1" stop-color="#f7f4ff"/>
    </linearGradient>
  </defs>
  <rect class="st6" width="1200" height="630"/>
  <rect class="st1" width="1200" height="630"/>
  <path class="st0" d="M0,505c192-57,340-38,493,17,169,61,350,64,707-53v161H0v-125Z"/>
  <rect class="st13" x="790.6" y="108.2" width="344" height="421" rx="24" ry="24"/>
  <rect class="st19" x="762.4" y="90.2" width="368" height="433" rx="24" ry="24"/>
  <g class="st8">
    <text class="st10" transform="translate(812.6 148.2)"><tspan x="0" y="0">YOUR REVISION WORKSPACE</tspan></text>
  </g>
  <g class="st8">
    <path class="st15" d="M821.4,183.5c-1.6,0-3-.4-4.2-1.1s-2.1-1.7-2.8-3-1-2.9-1-4.7h0c0-1.8.3-3.4,1-4.7s1.6-2.3,2.8-3,2.6-1.1,4.2-1.1,2.5.2,3.5.8,1.9,1.2,2.5,2.1,1,1.9,1.2,3h0c0,.1-3,.1-3,.1v-.2c-.2-.6-.5-1.2-.9-1.7s-.8-.8-1.4-1.1-1.2-.4-2-.4-1.8.2-2.6.8-1.3,1.2-1.7,2.1-.6,2-.6,3.3h0c0,1.3.2,2.3.6,3.3s1,1.6,1.7,2.1,1.6.8,2.6.8,1.4-.1,1.9-.4,1-.6,1.4-1.1.7-1.1.9-1.8h0c0-.1,3-.1,3-.1h0c0,1.3-.5,2.3-1.2,3.2s-1.5,1.6-2.5,2.1-2.2.7-3.5.7h0Z"/>
    <path class="st15" d="M836.1,183.4c-1.2,0-2.3-.3-3.2-.8s-1.6-1.3-2.1-2.2-.7-2.1-.7-3.4h0c0-1.3.2-2.5.7-3.4s1.2-1.7,2-2.3,1.9-.8,3.1-.8,2.2.3,3.1.8,1.5,1.2,2,2.2.7,2,.7,3.3v.9h-10.1v-1.9h8.8l-1.4,1.8v-1.1c0-.8,0-1.5-.4-2s-.6-.9-1-1.2-.9-.4-1.5-.4-1.1.1-1.5.4-.8.7-1.1,1.2-.4,1.2-.4,2v1.1c0,.8,0,1.4.4,1.9s.6.9,1.1,1.2,1,.4,1.7.4.9,0,1.3-.2.7-.3.9-.6.4-.5.5-.8h2.7c0,.6-.3,1.1-.6,1.5s-.6.9-1.1,1.2-1,.7-1.6.9-1.4.3-2.2.3h-.1Z"/>
    <path class="st15" d="M843.7,183.2v-16.9h2.9v16.9h-2.9Z"/>
    <path class="st15" d="M849.2,183.2v-16.9h2.9v16.9h-2.9Z"/>
    <path class="st15" d="M864.2,183.4c-1.1,0-2-.2-2.8-.5s-1.4-.8-1.8-1.4-.7-1.3-.8-2h0c0-.1,2.9-.1,2.9-.1h0c0,.6.4,1.1.8,1.4s1,.4,1.7.4.9,0,1.2-.2.6-.3.8-.5.3-.5.3-.8h0c0-.4,0-.7-.4-.9s-.7-.4-1.3-.6l-2.1-.5c-.8-.2-1.4-.4-2-.7s-.9-.7-1.2-1.2-.4-1-.4-1.6h0c0-.8.2-1.4.6-2s1-1,1.7-1.3,1.6-.5,2.6-.5,1.9.2,2.6.5,1.3.8,1.7,1.4.6,1.2.7,1.9h0c0,.1-2.7.1-2.7.1h0c0-.6-.3-1-.7-1.3s-.9-.5-1.6-.5-.8,0-1.1.2-.6.3-.7.5-.3.5-.3.8h0c0,.2,0,.5.2.6s.3.3.6.5.6.3,1,.4l2.1.5c1.3.3,2.2.7,2.8,1.2s.8,1.3.8,2.2h0c0,.8-.2,1.5-.7,2.1s-1.1,1-1.8,1.4-1.7.5-2.7.5h0Z"/>
    <path class="st15" d="M875.9,183.4c-1.3,0-2.2-.3-2.9-.8s-.9-1.5-.9-2.8v-6.8h-1.8v-2.2h1.8v-3.2h3v3.2h2.3v2.2h-2.3v6.6c0,.6,0,1,.4,1.2s.7.3,1.2.3.3,0,.4,0h.3v2.2h-1.5Z"/>
    <path class="st15" d="M879.3,183.2v-12.4h2.9v2.1h0c.2-.8.5-1.3,1-1.8s1.1-.6,1.8-.6.4,0,.5,0h.4v2.6c0,0-.3,0-.5-.1s-.4,0-.7,0c-.5,0-1,.1-1.4.3s-.7.5-.9,1-.3,1-.3,1.6v7.2h-2.9.1Z"/>
    <path class="st15" d="M891.8,183.4c-.9,0-1.7-.2-2.3-.6s-1.1-.9-1.5-1.6-.5-1.5-.5-2.5v-8h2.9v7.5c0,.9.2,1.6.6,2s1,.7,1.9.7.8,0,1.1-.2.6-.3.9-.6.4-.6.6-1,.2-.8.2-1.2v-7.2h2.9v12.4h-2.9v-1.9h0c-.2.4-.5.8-.9,1.2s-.8.6-1.3.8-1.1.3-1.7.3h0Z"/>
    <path class="st15" d="M906.4,183.4c-1.2,0-2.3-.3-3.2-.8s-1.6-1.3-2.1-2.2-.7-2.1-.7-3.4h0c0-1.3.2-2.5.7-3.4s1.2-1.7,2.1-2.2,1.9-.8,3.1-.8,2,.2,2.8.6,1.4,1,1.9,1.7.7,1.4.8,2.3h-2.7c0-.7-.4-1.2-.8-1.6s-1.1-.6-1.8-.6-1.1.2-1.6.5-.8.8-1.1,1.4-.4,1.3-.4,2.2h0c0,.9,0,1.6.4,2.2s.6,1.1,1.1,1.4,1,.5,1.6.5,1.3-.2,1.8-.6.8-.9.9-1.6h0c0-.1,2.8-.1,2.8-.1h0c0,.9-.4,1.7-.8,2.4s-1.1,1.2-1.9,1.6-1.7.6-2.8.6h0Z"/>
    <path class="st15" d="M918.3,183.4c-1.3,0-2.2-.3-2.9-.8s-.9-1.5-.9-2.8v-6.8h-1.8v-2.2h1.8v-3.2h3v3.2h2.3v2.2h-2.3v6.6c0,.6,0,1,.4,1.2s.7.3,1.2.3.3,0,.4,0h.3v2.2h-1.5Z"/>
    <path class="st15" d="M925.9,183.4c-.9,0-1.7-.2-2.3-.6s-1.1-.9-1.5-1.6-.5-1.5-.5-2.5v-8h2.9v7.5c0,.9.2,1.6.6,2s1,.7,1.9.7.8,0,1.1-.2.6-.3.9-.6.4-.6.6-1,.2-.8.2-1.2v-7.2h2.9v12.4h-2.9v-1.9h0c-.2.4-.5.8-.9,1.2s-.8.6-1.3.8-1.1.3-1.7.3h0Z"/>
    <path class="st15" d="M935.1,183.2v-12.4h2.9v2.1h0c.2-.8.5-1.3,1-1.8s1.1-.6,1.8-.6.4,0,.5,0h.4v2.6c0,0-.3,0-.5-.1s-.4,0-.7,0c-.5,0-1,.1-1.4.3s-.7.5-.9,1-.3,1-.3,1.6v7.2h-2.9.1Z"/>
    <path class="st15" d="M948.3,183.4c-1.2,0-2.3-.3-3.2-.8s-1.6-1.3-2.1-2.2-.7-2.1-.7-3.4h0c0-1.3.2-2.5.7-3.4s1.2-1.7,2-2.3,1.9-.8,3.1-.8,2.2.3,3.1.8,1.5,1.2,2,2.2.7,2,.7,3.3v.9h-10.1v-1.9h8.8l-1.4,1.8v-1.1c0-.8,0-1.5-.4-2s-.6-.9-1-1.2-.9-.4-1.5-.4-1.1.1-1.5.4-.8.7-1.1,1.2-.4,1.2-.4,2v1.1c0,.8,0,1.4.4,1.9s.6.9,1.1,1.2,1,.4,1.7.4.9,0,1.3-.2.7-.3.9-.6.4-.5.5-.8h2.7c0,.6-.3,1.1-.6,1.5s-.6.9-1.1,1.2-1,.7-1.6.9-1.4.3-2.2.3h-.1Z"/>
  </g>
  <g class="st8">
    <text class="st7" transform="translate(812.6 209.2)"><tspan x="0" y="0">Biology · IGCSE Science</tspan></text>
  </g>
  <line class="st4" x1="812.6" y1="238.2" x2="1112.6" y2="238.2"/>
  <circle class="st12" cx="836.6" cy="292.2" r="24"/>
  <path class="st3" d="M823.6,293.2h7l4-12,6,23,5-14h6"/>
  <g class="st8">
    <text class="st9" transform="translate(878.6 285.2)"><tspan x="0" y="0">REVISION NOTES</tspan></text>
  </g>
  <g class="st8">
    <path class="st15" d="M884.6,308.4c-1,0-1.9-.2-2.6-.6-.7-.4-1.3-.9-1.7-1.6s-.6-1.4-.6-2.3v-7.8h2.1v7.6c0,.6,0,1,.3,1.4s.5.7,1,1c.4.2.9.3,1.5.3s1.1-.1,1.5-.3c.4-.2.7-.6.9-1s.3-.9.3-1.4v-7.6h2.1v7.8c0,.9-.2,1.7-.6,2.3s-1,1.2-1.7,1.6-1.6.6-2.6.6h0Z"/>
    <path class="st15" d="M891.4,308.2v-8.8h2.1v1.4h0c.2-.5.6-.9,1-1.1.5-.3,1-.4,1.7-.4,1,0,1.7.3,2.2.9s.8,1.4.8,2.4v5.7h-2.1v-5.3c0-.6,0-1.1-.4-1.4-.3-.3-.7-.5-1.3-.5s-.7,0-1,.3-.5.4-.7.7-.2.7-.2,1.1v5.1h-2.1Z"/>
    <path class="st15" d="M904.2,308.4c-.7,0-1.4-.2-1.9-.6s-1-.9-1.3-1.6-.4-1.5-.4-2.4h0c0-1,0-1.8.4-2.5s.7-1.2,1.3-1.6,1.2-.6,1.9-.6.8,0,1.2.2c.4.1.7.3.9.6.3.3.5.6.7.9h0v-4.7h2.1v12h-2.1v-1.5h0c-.2.3-.4.6-.6.9-.3.2-.6.4-.9.6s-.7.2-1.2.2h-.1ZM904.8,306.6c.4,0,.8-.1,1.1-.3.3-.2.6-.6.8-1s.3-.9.3-1.5h0c0-.6,0-1.1-.3-1.5-.2-.4-.4-.8-.8-1-.3-.2-.7-.3-1.1-.3s-.8.1-1.2.3c-.3.2-.6.6-.7,1-.2.4-.3.9-.3,1.5h0c0,.6,0,1.1.3,1.5.2.4.4.8.7,1s.7.3,1.2.3Z"/>
    <path class="st15" d="M914.6,308.4c-.9,0-1.6-.2-2.3-.6s-1.1-.9-1.5-1.6c-.3-.7-.5-1.5-.5-2.4h0c0-.9.2-1.7.5-2.4.3-.7.8-1.2,1.4-1.6.6-.4,1.3-.6,2.2-.6s1.6.2,2.2.6c.6.4,1.1.9,1.4,1.5.3.7.5,1.4.5,2.3v.7h-7.2v-1.4h6.2l-1,1.3v-.8c0-.6,0-1.1-.3-1.4-.2-.4-.4-.7-.7-.9-.3-.2-.7-.3-1.1-.3s-.8,0-1.1.3-.6.5-.7.9c-.2.4-.3.9-.3,1.4v.8c0,.5,0,1,.3,1.4.2.4.4.7.8.9s.7.3,1.2.3.6,0,.9-.2c.3-.1.5-.2.6-.4.2-.2.3-.4.4-.6h1.9c0,.4-.2.8-.4,1.1-.2.3-.5.6-.8.9s-.7.5-1.2.6-1,.2-1.5.2h0Z"/>
    <path class="st15" d="M919.9,308.2v-8.8h2.1v1.5h0c0-.5.4-.9.7-1.2s.8-.5,1.3-.5.2,0,.4,0h.3v1.9h-.9c-.4,0-.7,0-1,.2s-.5.4-.6.7c0,.3-.2.7-.2,1.1v5.1h-2.1Z"/>
    <path class="st15" d="M929.2,308.4c-.8,0-1.4-.1-2-.3-.5-.2-1-.5-1.3-1s-.5-.9-.6-1.4h2c0,.5.3.8.6,1s.7.3,1.2.3.6,0,.9-.1.4-.2.6-.4c0-.2.2-.3.2-.6h0c0-.3,0-.5-.3-.6s-.5-.3-1-.4l-1.5-.3c-.6-.1-1-.3-1.4-.5s-.7-.5-.8-.8-.3-.7-.3-1.1h0c0-.5,0-1,.4-1.4.3-.4.7-.7,1.2-.9.5-.2,1.1-.3,1.9-.3s1.4.1,1.9.4c.5.2.9.6,1.2,1s.4.9.5,1.4h-1.9c0-.4-.2-.7-.5-.9s-.7-.3-1.1-.3-.6,0-.8.1-.4.2-.5.4c0,.2-.2.3-.2.6h0c0,.2,0,.3,0,.5,0,.1.2.2.4.3.2,0,.4.2.7.3l1.5.3c.9.2,1.6.5,2,.9s.6.9.6,1.5h0c0,.6-.2,1-.5,1.5-.3.4-.8.7-1.3,1-.6.2-1.2.3-1.9.3v-.5Z"/>
    <path class="st15" d="M937.5,308.4c-.9,0-1.6-.2-2-.6s-.7-1.1-.7-2v-4.8h-1.2v-1.6h1.2v-2.2h2.1v2.2h1.6v1.6h-1.6v4.7c0,.4,0,.7.3.9.2.2.5.2.8.2h.5v1.6h-1,0Z"/>
    <path class="st15" d="M942.4,308.3c-.6,0-1.1-.1-1.5-.3-.4-.2-.8-.5-1-.9s-.4-.9-.4-1.4h0c0-.5,0-1,.4-1.4.3-.4.6-.7,1.1-.9s1.1-.3,1.8-.4l3.4-.2v1.4l-3.1.2c-.5,0-.9.2-1.2.4s-.4.5-.4.8h0c0,.4,0,.7.4.9.3.2.6.3,1.1.3s.8,0,1.1-.2.6-.4.7-.7.3-.6.3-.9v-2.6c0-.4,0-.8-.4-1-.3-.3-.7-.4-1.2-.4s-.9.1-1.2.3c-.3.2-.5.5-.5.8h-1.9c0-.6.2-1.1.5-1.5s.7-.7,1.3-1c.5-.2,1.2-.4,1.9-.4s1.4.1,1.9.4,1,.6,1.3,1,.4,1,.4,1.5v6.1h-2.1v-1.4h0c-.2.3-.4.6-.6.8-.3.2-.6.4-.9.5s-.7.2-1.1.2h0Z"/>
    <path class="st15" d="M948.8,308.2v-8.8h2.1v1.4h0c.2-.5.6-.9,1-1.1.5-.3,1-.4,1.7-.4,1,0,1.7.3,2.2.9s.8,1.4.8,2.4v5.7h-2.1v-5.3c0-.6,0-1.1-.4-1.4-.3-.3-.7-.5-1.3-.5s-.7,0-1,.3c-.3.2-.5.4-.7.7-.2.3-.2.7-.2,1.1v5.1h-2.1Z"/>
    <path class="st15" d="M961.6,308.4c-.7,0-1.4-.2-1.9-.6s-1-.9-1.3-1.6-.4-1.5-.4-2.4h0c0-1,.2-1.8.4-2.5s.7-1.2,1.3-1.6c.5-.4,1.2-.6,1.9-.6s.8,0,1.2.2c.4.1.7.3.9.6s.5.6.7.9h0v-4.7h2.1v12h-2.1v-1.5h0c-.2.3-.4.6-.6.9-.3.2-.6.4-.9.6s-.7.2-1.2.2h-.1ZM962.2,306.6c.4,0,.8-.1,1.1-.3s.6-.6.8-1,.3-.9.3-1.5h0c0-.6,0-1.1-.3-1.5-.2-.4-.4-.8-.8-1-.3-.2-.7-.3-1.1-.3s-.8.1-1.1.3-.6.6-.7,1c-.2.4-.3.9-.3,1.5h0c0,.6,0,1.1.3,1.5.2.4.4.8.7,1s.7.3,1.1.3Z"/>
    <path class="st15" d="M974.8,308.4c-.9,0-1.6-.2-2-.6s-.7-1.1-.7-2v-4.8h-1.2v-1.6h1.2v-2.2h2.1v2.2h1.6v1.6h-1.6v4.7c0,.4,0,.7.3.9.2.2.5.2.8.2h.5v1.6h-1,0Z"/>
    <path class="st15" d="M977.3,308.2v-12h2.1v4.7h0c.2-.5.6-.9,1-1.2.5-.3,1-.4,1.7-.4s1.2.1,1.7.4.8.7,1.1,1.2.4,1.1.4,1.8v5.5h-2.1v-5.1c0-.7-.2-1.2-.5-1.6s-.8-.6-1.4-.6-.7,0-1,.3c-.3.2-.5.4-.7.8-.2.3-.2.7-.2,1.1v5.1h-2.1Z"/>
    <path class="st15" d="M990.8,308.4c-.9,0-1.6-.2-2.3-.6s-1.1-.9-1.5-1.6c-.3-.7-.5-1.5-.5-2.4h0c0-.9.2-1.7.5-2.4.3-.7.8-1.2,1.4-1.6.6-.4,1.3-.6,2.2-.6s1.6.2,2.2.6c.6.4,1.1.9,1.4,1.5.3.7.5,1.4.5,2.3v.7h-7.2v-1.4h6.2l-1,1.3v-.8c0-.6,0-1.1-.3-1.4-.2-.4-.4-.7-.7-.9-.3-.2-.7-.3-1.1-.3s-.8,0-1.1.3-.6.5-.7.9c-.2.4-.3.9-.3,1.4v.8c0,.5,0,1,.3,1.4.2.4.4.7.8.9s.7.3,1.2.3.6,0,.9-.2c.3-.1.5-.2.6-.4.2-.2.3-.4.4-.6h1.9c0,.4-.2.8-.4,1.1-.2.3-.5.6-.8.9s-.7.5-1.2.6-1,.2-1.5.2h0Z"/>
    <path class="st15" d="M1002.8,308.4c-.9,0-1.6-.2-2-.6s-.7-1.1-.7-2v-4.8h-1.2v-1.6h1.2v-2.2h2.1v2.2h1.6v1.6h-1.6v4.7c0,.4,0,.7.3.9s.5.2.8.2h.5v1.6h-1,0Z"/>
    <path class="st15" d="M1008.9,308.4c-.9,0-1.6-.2-2.2-.6-.6-.4-1.1-.9-1.5-1.6s-.5-1.5-.5-2.4h0c0-1,.2-1.8.5-2.5.4-.7.8-1.2,1.5-1.6s1.4-.6,2.2-.6,1.6.2,2.2.6c.6.4,1.1.9,1.5,1.6s.5,1.5.5,2.4h0c0,1-.2,1.8-.5,2.5-.4.7-.8,1.2-1.5,1.6-.6.4-1.4.5-2.2.5h0ZM1008.9,306.7c.4,0,.8-.1,1.1-.3.3-.2.6-.6.7-1s.3-1,.3-1.6h0c0-.6,0-1.1-.3-1.6-.2-.4-.4-.8-.8-1-.3-.2-.7-.3-1.1-.3s-.8.1-1.1.3c-.3.2-.6.6-.8,1s-.3,1-.3,1.6h0c0,.6,0,1.2.3,1.6s.4.8.8,1c.3.2.7.3,1.1.3h0Z"/>
    <path class="st15" d="M1014.5,311.1v-11.7h2.1v1.5h0c.2-.4.4-.7.7-.9.3-.3.6-.4.9-.6.4-.1.7-.2,1.1-.2.7,0,1.4.2,1.9.6s1,.9,1.3,1.6.4,1.5.4,2.4h0c0,.9,0,1.8-.4,2.4-.3.7-.7,1.2-1.3,1.6-.5.4-1.2.6-1.9.6s-.8,0-1.2-.2c-.4-.1-.7-.3-.9-.6-.3-.2-.5-.5-.7-.9h0v4.4h-2.1.1ZM1018.7,306.6c.4,0,.8-.1,1.1-.3.3-.2.6-.6.7-1,.2-.4.3-.9.3-1.5h0c0-.6,0-1.1-.3-1.5-.2-.4-.4-.7-.7-1-.3-.2-.7-.3-1.1-.3s-.8.1-1.1.3c-.3.2-.6.6-.8,1s-.3.9-.3,1.5h0c0,.6,0,1.1.3,1.5.2.4.4.8.8,1,.3.2.7.3,1.1.3Z"/>
    <path class="st15" d="M1025.4,298.1c-.3,0-.6-.1-.8-.3-.2-.2-.3-.5-.3-.8s0-.6.3-.8c.2-.2.5-.3.8-.3s.6.1.8.3.3.5.3.8,0,.6-.3.8-.5.3-.8.3ZM1024.4,308.2v-8.8h2.1v8.8h-2.1Z"/>
    <path class="st15" d="M1032.1,308.4c-.9,0-1.6-.2-2.3-.6-.6-.4-1.1-.9-1.5-1.6-.3-.7-.5-1.5-.5-2.4h0c0-.9.2-1.8.5-2.4s.8-1.2,1.5-1.6c.6-.4,1.4-.6,2.2-.6s1.4.1,2,.4,1,.7,1.3,1.2.5,1,.5,1.6h-1.9c0-.5-.3-.9-.6-1.2-.3-.3-.8-.5-1.3-.5s-.8.1-1.1.4-.6.6-.8,1-.3.9-.3,1.6h0c0,.6,0,1.1.3,1.6.2.4.4.8.8,1,.3.2.7.3,1.1.3s1-.1,1.3-.4.5-.7.6-1.1h2c0,.7-.2,1.2-.6,1.7s-.8.9-1.3,1.2-1.2.4-2,.4h0Z"/>
  </g>
  <circle class="st16" cx="836.6" cy="368.2" r="24"/>
  <path class="st5" d="M826.6,361.2h20M826.6,368.2h20M826.6,375.2h14"/>
  <g class="st8">
    <text class="st9" transform="translate(878.6 361.2)"><tspan x="0" y="0">FLASHCARDS</tspan></text>
  </g>
  <g class="st8">
    <path class="st15" d="M879.7,384.2v-12h4.8c.9,0,1.6.2,2.2.5s1.1.7,1.4,1.3c.3.6.5,1.2.5,2h0c0,.8-.2,1.5-.6,2.1-.4.6-1,1-1.6,1.3l2.6,4.8h-2.4l-2.4-4.5h-2.3v4.5h-2.2ZM881.8,378h2.4c.7,0,1.2-.2,1.6-.5.4-.4.6-.9.6-1.5h0c0-.6-.2-1.1-.6-1.5s-.9-.5-1.6-.5h-2.4v4.1h0Z"/>
    <path class="st15" d="M893.9,384.4c-.9,0-1.6-.2-2.3-.6-.6-.4-1.1-.9-1.5-1.6-.3-.7-.5-1.5-.5-2.4h0c0-.9.2-1.7.5-2.4.3-.7.8-1.2,1.4-1.6.6-.4,1.3-.6,2.2-.6s1.6.2,2.2.6,1.1.9,1.4,1.5.5,1.4.5,2.3v.7h-7.2v-1.4h6.2l-1,1.3v-.8c0-.6,0-1.1-.3-1.4-.2-.4-.4-.7-.7-.9-.3-.2-.7-.3-1.1-.3s-.8,0-1.1.3c-.3.2-.6.5-.7.9s-.3.9-.3,1.4v.8c0,.5,0,1,.3,1.4s.4.7.8.9.7.3,1.2.3.6,0,.9-.2c.3-.1.5-.2.6-.4.2-.2.3-.4.4-.6h1.9c0,.4-.2.8-.4,1.1-.2.3-.5.6-.8.9s-.7.5-1.2.6-1,.2-1.5.2h0Z"/>
    <path class="st15" d="M899.2,384.2v-8.8h2.1v1.4h0c.2-.5.5-.9.9-1.2.4-.3.9-.4,1.5-.4s.8,0,1.1.2c.3.1.6.3.8.6s.4.6.5,1h0c0-.4.3-.7.6-.9s.6-.5.9-.6c.4-.1.8-.2,1.2-.2s1.1.1,1.5.4c.4.2.8.6,1,1s.4,1,.4,1.5v6h-2.1v-5.5c0-.4,0-.7-.2-.9,0-.3-.3-.4-.5-.6s-.5-.2-.9-.2-.6,0-.9.2-.4.4-.6.6c0,.3-.2.6-.2.9v5.4h-2v-5.6c0-.3,0-.6-.2-.9s-.3-.4-.5-.6-.5-.2-.8-.2-.6,0-.9.2c-.3.2-.5.4-.6.7,0,.3-.2.6-.2,1v5.4h-2.1.2Z"/>
    <path class="st15" d="M917.4,384.4c-.9,0-1.6-.2-2.3-.6-.6-.4-1.1-.9-1.5-1.6s-.5-1.5-.5-2.4h0c0-.9.2-1.7.5-2.4.3-.7.8-1.2,1.4-1.6.6-.4,1.3-.6,2.2-.6s1.6.2,2.2.6c.6.4,1.1.9,1.4,1.5.3.7.5,1.4.5,2.3v.7h-7.2v-1.4h6.2l-1,1.3v-.8c0-.6,0-1.1-.3-1.4-.2-.4-.4-.7-.7-.9-.3-.2-.7-.3-1.1-.3s-.8,0-1.1.3-.6.5-.7.9c-.2.4-.3.9-.3,1.4v.8c0,.5,0,1,.3,1.4.2.4.4.7.8.9s.7.3,1.2.3.6,0,.9-.2c.3-.1.5-.2.6-.4.2-.2.3-.4.4-.6h1.9c0,.4-.2.8-.4,1.1-.2.3-.5.6-.8.9s-.7.5-1.2.6c-.4.2-1,.2-1.5.2h0Z"/>
    <path class="st15" d="M922.7,384.2v-8.8h2.1v1.4h0c.2-.5.5-.9.9-1.2.4-.3.9-.4,1.5-.4s.8,0,1.1.2c.3.1.6.3.8.6.2.3.4.6.5,1h0c0-.4.4-.7.6-.9.3-.3.6-.5.9-.6.4-.1.8-.2,1.2-.2s1.1.1,1.5.4c.4.2.8.6,1,1s.4,1,.4,1.5v6h-2.1v-5.5c0-.4,0-.7-.2-.9s-.3-.4-.5-.6-.5-.2-.9-.2-.6,0-.9.2c-.3.2-.4.4-.6.6s-.2.6-.2.9v5.4h-2v-5.6c0-.3,0-.6-.2-.9,0-.2-.3-.4-.5-.6s-.5-.2-.8-.2-.6,0-.9.2c-.3.2-.5.4-.6.7,0,.3-.2.6-.2,1v5.4h-2.1.2Z"/>
    <path class="st15" d="M941.9,384.4c-.4,0-.8,0-1.2-.2-.4-.1-.7-.3-.9-.6s-.5-.5-.7-.9h0v1.5h-2.1v-12h2.1v4.7h0c.2-.4.4-.7.7-.9.3-.3.6-.4.9-.6s.7-.2,1.2-.2,1.4.2,1.9.6,1,.9,1.3,1.6.4,1.5.4,2.4h0c0,.9,0,1.8-.4,2.4s-.7,1.2-1.3,1.6c-.5.4-1.2.6-1.9.6ZM941.2,382.6c.4,0,.8-.1,1.1-.3.3-.2.6-.6.7-1,.2-.4.3-.9.3-1.5h0c0-.6,0-1.1-.3-1.5-.2-.4-.4-.7-.7-1-.3-.2-.7-.3-1.1-.3s-.8.1-1.1.3c-.3.2-.6.6-.8,1s-.3.9-.3,1.5h0c0,.6,0,1.1.3,1.5.2.4.4.8.8,1,.3.2.7.3,1.1.3Z"/>
    <path class="st15" d="M950.7,384.4c-.9,0-1.6-.2-2.3-.6-.6-.4-1.1-.9-1.5-1.6-.3-.7-.5-1.5-.5-2.4h0c0-.9.2-1.7.5-2.4.3-.7.8-1.2,1.4-1.6.6-.4,1.3-.6,2.2-.6s1.6.2,2.2.6,1.1.9,1.4,1.5.5,1.4.5,2.3v.7h-7.2v-1.4h6.2l-1,1.3v-.8c0-.6,0-1.1-.3-1.4-.2-.4-.4-.7-.7-.9-.3-.2-.7-.3-1.1-.3s-.8,0-1.1.3c-.3.2-.6.5-.7.9s-.3.9-.3,1.4v.8c0,.5,0,1,.3,1.4s.4.7.8.9.7.3,1.2.3.6,0,.9-.2c.3-.1.5-.2.6-.4.2-.2.3-.4.4-.6h1.9c0,.4-.2.8-.4,1.1-.2.3-.5.6-.8.9s-.7.5-1.2.6-1,.2-1.5.2h0Z"/>
    <path class="st15" d="M956,384.2v-8.8h2.1v1.5h0c0-.5.4-.9.7-1.2.4-.3.8-.5,1.3-.5s.2,0,.4,0h.3v1.9h-.9c-.4,0-.7,0-1,.2s-.5.4-.6.7c-.2.3-.2.7-.2,1.1v5.1h-2.1Z"/>
    <path class="st15" d="M965.3,384.2v-12h2.1v12h-2.1ZM967.1,381.5v-2.4h.3l3.3-3.7h2.4l-4.1,4.5h-.4l-1.5,1.6ZM970.9,384.2l-2.9-4,1.3-1.5,4,5.5h-2.4,0Z"/>
    <path class="st15" d="M977.5,384.4c-.9,0-1.6-.2-2.3-.6s-1.1-.9-1.5-1.6c-.3-.7-.5-1.5-.5-2.4h0c0-.9.2-1.7.5-2.4.3-.7.8-1.2,1.4-1.6.6-.4,1.3-.6,2.2-.6s1.6.2,2.2.6c.6.4,1.1.9,1.4,1.5.3.7.5,1.4.5,2.3v.7h-7.2v-1.4h6.2l-1,1.3v-.8c0-.6,0-1.1-.3-1.4-.2-.4-.4-.7-.7-.9-.3-.2-.7-.3-1.1-.3s-.8,0-1.1.3-.6.5-.7.9c-.2.4-.3.9-.3,1.4v.8c0,.5,0,1,.3,1.4.2.4.4.7.8.9s.7.3,1.2.3.6,0,.9-.2c.3-.1.5-.2.6-.4.2-.2.3-.4.4-.6h1.9c0,.4-.2.8-.4,1.1-.2.3-.5.6-.8.9s-.7.5-1.2.6-1,.2-1.5.2h0Z"/>
    <path class="st15" d="M983.7,387.1h-1.1v-1.6h.7c.4,0,.7,0,.9-.2s.4-.4.5-.8v-.4c0,0-3-8.8-3-8.8h2.2l2.2,7.5-.3-.4h.4l-.3.4,2.2-7.5h2.2l-3.2,9.1c-.2.6-.5,1.2-.8,1.5s-.7.7-1.1.8c-.4.2-1,.3-1.6.3h0Z"/>
    <path class="st15" d="M995.8,374.1c-.3,0-.6-.1-.8-.3s-.3-.5-.3-.8,0-.6.3-.8.5-.3.8-.3.6.1.8.3c.2.2.3.5.3.8s0,.6-.3.8c-.2.2-.5.3-.8.3ZM994.8,384.2v-8.8h2.1v8.8h-2.1Z"/>
    <path class="st15" d="M1001.9,384.4c-.7,0-1.4-.2-1.9-.6s-1-.9-1.3-1.6-.4-1.5-.4-2.4h0c0-1,0-1.8.4-2.5s.7-1.2,1.3-1.6,1.2-.6,1.9-.6.8,0,1.2.2.7.3.9.6c.3.3.5.6.7.9h0v-4.7h2.1v12h-2.1v-1.5h0c-.2.3-.4.6-.6.9s-.6.4-.9.6c-.4.1-.7.2-1.2.2h-.1ZM1002.5,382.6c.4,0,.8-.1,1.1-.3.3-.2.6-.6.8-1s.3-.9.3-1.5h0c0-.6,0-1.1-.3-1.5-.2-.4-.4-.8-.8-1-.3-.2-.7-.3-1.1-.3s-.8.1-1.1.3c-.3.2-.6.6-.7,1-.2.4-.3.9-.3,1.5h0c0,.6,0,1.1.3,1.5.2.4.4.8.7,1s.7.3,1.1.3Z"/>
    <path class="st15" d="M1012.3,384.4c-.9,0-1.6-.2-2.3-.6-.6-.4-1.1-.9-1.5-1.6-.3-.7-.5-1.5-.5-2.4h0c0-.9.2-1.7.5-2.4.3-.7.8-1.2,1.4-1.6.6-.4,1.3-.6,2.2-.6s1.6.2,2.2.6,1.1.9,1.4,1.5.5,1.4.5,2.3v.7h-7.2v-1.4h6.2l-1,1.3v-.8c0-.6,0-1.1-.3-1.4-.2-.4-.4-.7-.7-.9-.3-.2-.7-.3-1.1-.3s-.8,0-1.1.3c-.3.2-.6.5-.7.9s-.3.9-.3,1.4v.8c0,.5,0,1,.3,1.4s.4.7.8.9.7.3,1.2.3.6,0,.9-.2c.3-.1.5-.2.6-.4.2-.2.3-.4.4-.6h1.9c0,.4-.2.8-.4,1.1-.2.3-.5.6-.8.9s-.7.5-1.2.6-1,.2-1.5.2h0Z"/>
    <path class="st15" d="M1020.2,384.3c-.6,0-1.1-.1-1.5-.3-.4-.2-.8-.5-1-.9s-.4-.9-.4-1.4h0c0-.5,0-1,.4-1.4.3-.4.6-.7,1.1-.9s1.1-.3,1.8-.4l3.4-.2v1.4l-3.1.2c-.5,0-.9.2-1.2.4-.3.2-.4.5-.4.8h0c0,.4,0,.7.4.9.3.2.6.3,1.1.3s.8,0,1.1-.2.6-.4.7-.7c.2-.3.3-.6.3-.9v-2.6c0-.4,0-.8-.4-1-.3-.3-.7-.4-1.2-.4s-.9.1-1.2.3c-.3.2-.5.5-.5.8h-1.9c0-.6.2-1.1.5-1.5s.7-.7,1.3-1c.5-.2,1.2-.4,1.9-.4s1.4.1,1.9.4c.5.2,1,.6,1.3,1s.4,1,.4,1.5v6.1h-2.1v-1.4h0c-.2.3-.4.6-.6.8-.3.2-.6.4-.9.5-.3.1-.7.2-1.1.2h0Z"/>
    <path class="st15" d="M1030.1,384.4c-.8,0-1.4-.1-2-.3s-1-.5-1.3-1c-.3-.4-.5-.9-.6-1.4h2c0,.5.3.8.6,1s.7.3,1.2.3.6,0,.9-.1.4-.2.6-.4c0-.2.2-.3.2-.6h0c0-.3,0-.5-.3-.6s-.5-.3-1-.4l-1.5-.3c-.6-.1-1-.3-1.4-.5s-.7-.5-.8-.8-.3-.7-.3-1.1h0c0-.5,0-1,.4-1.4.3-.4.7-.7,1.2-.9.5-.2,1.1-.3,1.9-.3s1.4.1,1.9.4c.5.2.9.6,1.2,1s.4.9.5,1.4h-1.9c0-.4-.2-.7-.5-.9s-.7-.3-1.1-.3-.6,0-.8.1c-.2,0-.4.2-.5.4,0,.2-.2.3-.2.6h0c0,.2,0,.3,0,.5,0,.1.2.2.4.3.2,0,.4.2.7.3l1.5.3c.9.2,1.6.5,2,.9s.6.9.6,1.5h0c0,.6-.2,1-.5,1.5-.3.4-.8.7-1.3,1s-1.2.3-1.9.3v-.5Z"/>
  </g>
  <circle class="st14" cx="836.6" cy="444.2" r="24"/>
  <circle class="st2" cx="836.6" cy="444.2" r="12"/>
  <circle class="st18" cx="836.6" cy="444.2" r="4"/>
  <g class="st8">
    <text class="st9" transform="translate(878.6 437.2)"><tspan x="0" y="0">PRACTICE</tspan></text>
  </g>
  <g class="st8">
    <path class="st15" d="M878.8,460.2l4.3-12h1.8v2.1h-.6l-3.2,9.8h-2.3ZM881,457.1l.6-1.7h5.5l.6,1.7h-6.7ZM887.5,460.2l-3.2-9.8v-2.1h1.2l4.3,12h-2.3Z"/>
    <path class="st15" d="M890.9,463.1v-11.7h2.1v1.5h0c.2-.4.4-.7.7-.9.3-.3.6-.4.9-.6.4-.1.7-.2,1.2-.2s1.4.2,1.9.6,1,.9,1.3,1.6.4,1.5.4,2.4h0c0,.9,0,1.8-.4,2.4-.3.7-.7,1.2-1.3,1.6-.5.4-1.2.6-1.9.6s-.8,0-1.2-.2-.7-.3-.9-.6-.5-.5-.7-.9h0v4.4h-2.1ZM895.1,458.6c.4,0,.8-.1,1.1-.3s.6-.6.7-1c.2-.4.3-.9.3-1.5h0c0-.6,0-1.1-.3-1.5-.2-.4-.4-.7-.7-1-.3-.2-.7-.3-1.1-.3s-.8.1-1.1.3-.6.6-.8,1-.3.9-.3,1.5h0c0,.6,0,1.1.3,1.5.2.4.4.8.8,1s.7.3,1.1.3Z"/>
    <path class="st15" d="M900.7,463.1v-11.7h2.1v1.5h0c.2-.4.4-.7.7-.9.3-.3.6-.4.9-.6.4-.1.7-.2,1.1-.2.7,0,1.4.2,1.9.6s1,.9,1.3,1.6.4,1.5.4,2.4h0c0,.9,0,1.8-.4,2.4-.3.7-.7,1.2-1.3,1.6s-1.2.6-1.9.6-.8,0-1.2-.2c-.4-.1-.7-.3-.9-.6s-.5-.5-.7-.9h0v4.4h-2.1.1ZM904.9,458.6c.4,0,.8-.1,1.1-.3s.6-.6.7-1c.2-.4.3-.9.3-1.5h0c0-.6,0-1.1-.3-1.5-.2-.4-.4-.7-.7-1-.3-.2-.7-.3-1.1-.3s-.8.1-1.1.3-.6.6-.8,1-.3.9-.3,1.5h0c0,.6,0,1.1.3,1.5.2.4.4.8.8,1s.7.3,1.1.3Z"/>
    <path class="st15" d="M910.5,460.2v-12h2.1v12h-2.1Z"/>
    <path class="st15" d="M915.5,463.1h-1.1v-1.6h.7c.4,0,.7,0,.9-.2s.4-.4.5-.8v-.4c0,0-3-8.8-3-8.8h2.2l2.2,7.5-.3-.4h.4l-.3.4,2.2-7.5h2.2l-3.2,9.1c-.2.6-.5,1.2-.8,1.5s-.7.7-1.1.8-1,.3-1.6.3h0Z"/>
    <path class="st15" d="M928.3,460.2l-2.4-8.8h2.1l1.5,6.8h0l1.7-6.8h2l1.7,6.8h0l1.5-6.8h2l-2.4,8.8h-2.2l-1.7-6.4h0l-1.7,6.4h-2.1,0Z"/>
    <path class="st15" d="M939.6,460.2v-12h2.1v4.7h0c.2-.5.6-.9,1-1.2.5-.3,1-.4,1.7-.4s1.2.1,1.7.4.8.7,1.1,1.2.4,1.1.4,1.8v5.5h-2.1v-5.1c0-.7-.2-1.2-.5-1.6s-.8-.6-1.4-.6-.7,0-1,.3-.5.4-.7.8c-.2.3-.2.7-.2,1.1v5.1h-2.1Z"/>
    <path class="st15" d="M951.8,460.3c-.6,0-1.1-.1-1.5-.3-.4-.2-.8-.5-1-.9s-.4-.9-.4-1.4h0c0-.5,0-1,.4-1.4.3-.4.6-.7,1.1-.9s1.1-.3,1.8-.4l3.4-.2v1.4l-3.1.2c-.5,0-.9.2-1.2.4-.3.2-.4.5-.4.8h0c0,.4,0,.7.4.9.3.2.6.3,1.1.3s.8,0,1.1-.2.6-.4.7-.7c.2-.3.3-.6.3-.9v-2.6c0-.4,0-.8-.4-1-.3-.3-.7-.4-1.2-.4s-.9.1-1.2.3c-.3.2-.5.5-.5.8h-1.9c0-.6.2-1.1.5-1.5s.7-.7,1.3-1c.5-.2,1.2-.4,1.9-.4s1.4.1,1.9.4c.5.2,1,.6,1.3,1s.4,1,.4,1.5v6.1h-2.1v-1.4h0c-.2.3-.4.6-.6.8-.3.2-.6.4-.9.5-.3.1-.7.2-1.1.2h0Z"/>
    <path class="st15" d="M961.5,460.4c-.9,0-1.6-.2-2-.6s-.7-1.1-.7-2v-4.8h-1.2v-1.6h1.2v-2.2h2.1v2.2h1.6v1.6h-1.6v4.7c0,.4,0,.7.3.9.2.2.5.2.8.2h.5v1.6h-1,0Z"/>
    <path class="st15" d="M968.5,463.1h-1.1v-1.6h.7c.4,0,.7,0,.9-.2s.4-.4.5-.8v-.4c0,0-3-8.8-3-8.8h2.2l2.2,7.5-.3-.4h.4l-.3.4,2.2-7.5h2.2l-3.2,9.1c-.2.6-.5,1.2-.8,1.5-.3.4-.7.7-1.1.8-.4.2-1,.3-1.6.3h0Z"/>
    <path class="st15" d="M979.8,460.4c-.9,0-1.6-.2-2.2-.6-.6-.4-1.1-.9-1.5-1.6s-.5-1.5-.5-2.4h0c0-1,.2-1.8.5-2.5.4-.7.8-1.2,1.5-1.6s1.4-.6,2.2-.6,1.6.2,2.2.6c.6.4,1.1.9,1.5,1.6s.5,1.5.5,2.4h0c0,1-.2,1.8-.5,2.5-.4.7-.8,1.2-1.5,1.6-.6.4-1.4.5-2.2.5h0ZM979.8,458.7c.4,0,.8-.1,1.1-.3.3-.2.6-.6.7-1s.3-1,.3-1.6h0c0-.6,0-1.1-.3-1.6-.2-.4-.4-.8-.8-1-.3-.2-.7-.3-1.1-.3s-.8.1-1.1.3c-.3.2-.6.6-.8,1s-.3,1-.3,1.6h0c0,.6,0,1.2.3,1.6s.4.8.8,1c.3.2.7.3,1.1.3h0Z"/>
    <path class="st15" d="M988.3,460.4c-.6,0-1.2-.1-1.6-.4-.5-.3-.8-.6-1-1.1s-.4-1.1-.4-1.8v-5.7h2.1v5.3c0,.6,0,1.1.4,1.4.3.3.7.5,1.3.5s.6,0,.8-.2c.2-.1.4-.2.6-.4.2-.2.3-.4.4-.7s0-.6,0-.9v-5.1h2.1v8.8h-2.1v-1.4h0c-.2.3-.4.6-.6.8s-.5.4-.9.5-.7.2-1.2.2v.2Z"/>
    <path class="st15" d="M998.3,460.2v-12h2.1v12h-2.1ZM1000.1,457.5v-2.4h.3l3.3-3.7h2.4l-4.1,4.5h-.4l-1.5,1.6ZM1003.9,460.2l-2.9-4,1.3-1.5,4,5.5h-2.4,0Z"/>
    <path class="st15" d="M1007.1,460.2v-8.8h2.1v1.4h0c.2-.5.6-.9,1-1.1.5-.3,1-.4,1.7-.4,1,0,1.7.3,2.2.9s.8,1.4.8,2.4v5.7h-2.1v-5.3c0-.6,0-1.1-.4-1.4-.3-.3-.7-.5-1.3-.5s-.7,0-1,.3c-.3.2-.5.4-.7.7-.2.3-.2.7-.2,1.1v5.1h-2.1Z"/>
    <path class="st15" d="M1020.4,460.4c-.9,0-1.6-.2-2.2-.6-.6-.4-1.1-.9-1.5-1.6s-.5-1.5-.5-2.4h0c0-1,.2-1.8.5-2.5.4-.7.8-1.2,1.5-1.6s1.4-.6,2.2-.6,1.6.2,2.2.6c.6.4,1.1.9,1.5,1.6s.5,1.5.5,2.4h0c0,1-.2,1.8-.5,2.5-.4.7-.8,1.2-1.5,1.6-.6.4-1.4.5-2.2.5h0ZM1020.5,458.7c.4,0,.8-.1,1.1-.3.3-.2.6-.6.7-1s.3-1,.3-1.6h0c0-.6,0-1.1-.3-1.6-.2-.4-.4-.8-.8-1-.3-.2-.7-.3-1.1-.3s-.8.1-1.1.3c-.3.2-.6.6-.8,1s-.3,1-.3,1.6h0c0,.6,0,1.2.3,1.6s.4.8.8,1c.3.2.7.3,1.1.3h0Z"/>
    <path class="st15" d="M1027.7,460.2l-2.4-8.8h2.1l1.5,6.8h0l1.7-6.8h2l1.7,6.8h0l1.5-6.8h2l-2.4,8.8h-2.2l-1.7-6.4h0l-1.7,6.4h-2.1,0Z"/>
  </g>
  <g>
    <g>
      <g class="st8">
        <path class="st11" d="M105.9,409.8v-33.3h7v27.6h14.5v5.7h-21.6,0Z"/>
        <path class="st11" d="M140.6,410.3c-2.5,0-4.7-.5-6.5-1.6-1.8-1-3.2-2.5-4.2-4.4s-1.5-4.2-1.5-6.8h0c0-2.7.5-4.9,1.5-6.9s2.4-3.4,4.2-4.5,3.9-1.6,6.3-1.6,4.5.5,6.2,1.5c1.8,1,3.2,2.4,4.1,4.3s1.4,4,1.4,6.5v2.1h-20.4v-4.3h17.2l-3.2,4v-2.6c0-1.4-.2-2.7-.6-3.7-.4-1-1.1-1.7-1.9-2.2s-1.7-.7-2.8-.7-2,.3-2.8.8-1.4,1.2-1.9,2.2-.7,2.1-.7,3.6v2.7c0,1.4.2,2.5.7,3.5.4,1,1.1,1.7,1.9,2.2s1.9.8,3,.8,1.7-.1,2.4-.4c.6-.3,1.2-.6,1.6-1.1s.7-.9.9-1.4h0c0-.1,6.2-.1,6.2-.1v.3c-.3.9-.6,1.8-1.1,2.7-.6.9-1.3,1.8-2.1,2.5-.9.8-2,1.4-3.4,1.9s-2.9.7-4.7.7h.1Z"/>
        <path class="st11" d="M161.7,410.2c-1.6,0-3.1-.3-4.4-.9s-2.2-1.5-2.9-2.7-1.1-2.4-1.1-3.9h0c0-1.6.4-2.9,1.1-3.9s1.9-1.9,3.3-2.5c1.4-.6,3.2-1,5.2-1.1l9.7-.6v4.2l-8.7.6c-1.3,0-2.3.4-2.9.9-.6.5-1,1.2-1,2.1h0c0,.9.4,1.6,1.1,2.1s1.6.8,2.8.8,1.9-.2,2.7-.6c.8-.4,1.4-.9,1.9-1.6s.7-1.4.7-2.3v-7.5c0-1.1-.4-1.9-1.1-2.6s-1.7-.9-3-.9-2.3.3-3,.8-1.2,1.1-1.4,2v.2h-6.2v-.3c.1-1.5.6-2.9,1.6-4.1.9-1.2,2.1-2.1,3.7-2.8,1.6-.6,3.4-1,5.6-1s4,.4,5.6,1c1.6.7,2.8,1.6,3.7,2.9.9,1.2,1.3,2.7,1.3,4.4v17h-6.7v-3.7h-.1c-.5.9-1.1,1.6-1.8,2.1-.7.6-1.6,1.1-2.5,1.4s-1.9.5-3,.5h0Z"/>
        <path class="st11" d="M179,409.8v-24.7h6.7v4.3h.1c.4-1.5,1.1-2.7,2-3.6s2.1-1.3,3.7-1.3.7,0,1.1,0,.6.1.9.2v5.9c-.3-.1-.6-.2-1.1-.3-.4,0-.9,0-1.4,0-1.1,0-2.1.2-2.9.6s-1.4,1.1-1.8,1.9-.6,1.9-.6,3.1v13.8h-6.7Z"/>
        <path class="st11" d="M195,409.8v-24.7h6.7v4.1h.1c.6-1.4,1.6-2.5,2.9-3.4,1.3-.8,2.8-1.2,4.7-1.2,2.7,0,4.8.8,6.3,2.4s2.2,3.9,2.2,6.8v16h-6.7v-14.5c0-1.6-.4-2.9-1.1-3.8s-1.9-1.4-3.4-1.4-1.9.2-2.6.7-1.3,1.1-1.7,1.9c-.4.8-.6,1.8-.6,2.9v14.3h-6.7,0Z"/>
        <path class="st11" d="M224.5,410.2c-1.1,0-1.9-.4-2.7-1.1s-1.1-1.6-1.1-2.7.4-1.9,1.1-2.7,1.6-1.1,2.7-1.1,1.9.4,2.7,1.1,1.1,1.6,1.1,2.7-.4,1.9-1.1,2.7-1.6,1.1-2.7,1.1Z"/>
        <path class="st11" d="M237.1,409.8v-33.3h13.8c2.5,0,4.7.4,6.4,1.3,1.8.9,3.2,2.1,4.1,3.7s1.4,3.5,1.4,5.7h0c0,2.2-.6,4.2-1.6,5.9-1.1,1.7-2.6,2.9-4.4,3.7l7,13.1h-8l-6.2-12h-5.6v12h-7ZM244.1,392.5h6c1.7,0,3.1-.4,4.1-1.4,1-.9,1.5-2.2,1.5-3.8h0c0-1.6-.5-2.9-1.5-3.9s-2.4-1.4-4.1-1.4h-5.9v10.5h0Z"/>
        <path class="st11" d="M276.6,410.3c-2.5,0-4.7-.5-6.5-1.6-1.8-1-3.2-2.5-4.2-4.4s-1.5-4.2-1.5-6.8h0c0-2.7.5-4.9,1.5-6.9s2.4-3.4,4.2-4.5,3.9-1.6,6.3-1.6,4.5.5,6.2,1.5c1.8,1,3.2,2.4,4.1,4.3.9,1.9,1.4,4,1.4,6.5v2.1h-20.4v-4.3h17.2l-3.2,4v-2.6c0-1.4-.2-2.7-.6-3.7s-1.1-1.7-1.9-2.2-1.7-.7-2.8-.7-2,.3-2.8.8-1.4,1.2-1.9,2.2-.7,2.1-.7,3.6v2.7c0,1.4.2,2.5.7,3.5.4,1,1.1,1.7,1.9,2.2s1.9.8,3,.8,1.7-.1,2.4-.4c.6-.3,1.2-.6,1.6-1.1.4-.4.7-.9.9-1.4h0c0-.1,6.2-.1,6.2-.1v.3c-.3.9-.6,1.8-1.1,2.7-.6.9-1.3,1.8-2.1,2.5-.9.8-2,1.4-3.4,1.9s-2.9.7-4.7.7h.1Z"/>
        <path class="st11" d="M290.4,409.8v-24.7h6.7v4.2h.1c.5-1.4,1.4-2.6,2.6-3.4s2.7-1.3,4.3-1.3,2.2.2,3.2.6,1.7,1,2.4,1.7c.6.8,1.1,1.6,1.4,2.8h.1c.4-1.1.9-1.9,1.6-2.7.7-.8,1.6-1.4,2.7-1.8,1-.4,2.1-.6,3.4-.6s3,.4,4.2,1.1c1.2.7,2.1,1.6,2.9,2.9.6,1.2,1,2.7,1,4.4v16.9h-6.7v-15.2c0-1-.1-1.8-.5-2.4-.3-.6-.8-1.1-1.4-1.5s-1.4-.5-2.2-.5-1.6.2-2.2.6-1.1.9-1.5,1.6-.5,1.5-.5,2.4v15h-6.5v-15.4c0-.9-.1-1.6-.5-2.3s-.8-1.1-1.4-1.4c-.6-.4-1.3-.5-2.1-.5s-1.6.2-2.2.6-1.1.9-1.5,1.6-.6,1.5-.6,2.4v15h-6.7,0Z"/>
        <path class="st11" d="M341.2,410.3c-2.5,0-4.7-.5-6.5-1.6-1.8-1-3.2-2.5-4.2-4.4s-1.5-4.2-1.5-6.8h0c0-2.7.5-4.9,1.5-6.9s2.4-3.4,4.2-4.5,3.9-1.6,6.3-1.6,4.5.5,6.2,1.5c1.8,1,3.2,2.4,4.1,4.3.9,1.9,1.4,4,1.4,6.5v2.1h-20.4v-4.3h17.2l-3.2,4v-2.6c0-1.4-.2-2.7-.6-3.7s-1.1-1.7-1.9-2.2-1.7-.7-2.8-.7-2,.3-2.8.8-1.4,1.2-1.9,2.2-.7,2.1-.7,3.6v2.7c0,1.4.2,2.5.7,3.5.4,1,1.1,1.7,1.9,2.2s1.9.8,3,.8,1.7-.1,2.4-.4c.6-.3,1.2-.6,1.6-1.1.4-.4.7-.9.9-1.4h0c0-.1,6.2-.1,6.2-.1v.3c-.3.9-.6,1.8-1.1,2.7-.6.9-1.3,1.8-2.1,2.5-.9.8-2,1.4-3.4,1.9s-2.9.7-4.7.7h.1Z"/>
        <path class="st11" d="M355,409.8v-24.7h6.7v4.2h.1c.5-1.4,1.4-2.6,2.6-3.4s2.7-1.3,4.3-1.3,2.2.2,3.2.6,1.7,1,2.4,1.7c.6.8,1.1,1.6,1.4,2.8h.1c.4-1.1.9-1.9,1.6-2.7.7-.8,1.6-1.4,2.7-1.8,1-.4,2.1-.6,3.4-.6s3,.4,4.2,1.1c1.2.7,2.1,1.6,2.9,2.9.6,1.2,1,2.7,1,4.4v16.9h-6.7v-15.2c0-1-.1-1.8-.5-2.4-.3-.6-.8-1.1-1.4-1.5s-1.4-.5-2.2-.5-1.6.2-2.2.6-1.1.9-1.5,1.6-.5,1.5-.5,2.4v15h-6.5v-15.4c0-.9-.1-1.6-.5-2.3s-.8-1.1-1.4-1.4c-.6-.4-1.3-.5-2.1-.5s-1.6.2-2.2.6-1.1.9-1.5,1.6-.6,1.5-.6,2.4v15h-6.7,0Z"/>
        <path class="st11" d="M409.2,410.3c-1.2,0-2.3-.2-3.2-.6-1-.4-1.9-.9-2.6-1.6s-1.4-1.6-1.8-2.5h-.1v4.2h-6.7v-33.3h6.7v12.9h.1c.4-1,1.1-1.9,1.8-2.6s1.6-1.3,2.6-1.6,2.1-.6,3.2-.6c2.1,0,3.9.5,5.4,1.5,1.5,1,2.7,2.5,3.5,4.4.8,1.9,1.2,4.2,1.2,7h0c0,2.7-.4,5-1.2,7-.8,1.9-2,3.4-3.5,4.4-1.5,1-3.3,1.6-5.4,1.6h0ZM407,404.7c1.1,0,2.1-.3,2.9-.9.8-.6,1.4-1.4,1.9-2.5s.6-2.4.6-3.9h0c0-1.5-.2-2.8-.6-3.9-.4-1.1-1.1-1.9-1.9-2.5s-1.8-.9-2.9-.9-2.1.3-2.9.9c-.8.6-1.5,1.4-1.9,2.5-.5,1.1-.7,2.4-.7,3.9h0c0,1.5.2,2.8.7,3.9s1.1,1.9,1.9,2.5,1.8.9,2.9.9h0Z"/>
        <path class="st11" d="M432.9,410.3c-2.5,0-4.7-.5-6.5-1.6-1.8-1-3.2-2.5-4.2-4.4s-1.5-4.2-1.5-6.8h0c0-2.7.5-4.9,1.5-6.9,1-1.9,2.4-3.4,4.2-4.5s3.9-1.6,6.3-1.6,4.5.5,6.2,1.5c1.8,1,3.2,2.4,4.1,4.3s1.4,4,1.4,6.5v2.1h-20.4v-4.3h17.2l-3.2,4v-2.6c0-1.4-.2-2.7-.6-3.7-.4-1-1.1-1.7-1.9-2.2s-1.7-.7-2.8-.7-2,.3-2.8.8-1.4,1.2-1.9,2.2-.7,2.1-.7,3.6v2.7c0,1.4.2,2.5.7,3.5.4,1,1.1,1.7,1.9,2.2s1.9.8,3,.8,1.7-.1,2.4-.4c.6-.3,1.2-.6,1.6-1.1s.7-.9.9-1.4h0c0-.1,6.2-.1,6.2-.1v.3c-.3.9-.6,1.8-1.1,2.7-.6.9-1.3,1.8-2.1,2.5-.9.8-2,1.4-3.4,1.9s-2.9.7-4.7.7h.1Z"/>
        <path class="st11" d="M446.6,409.8v-24.7h6.7v4.3h.1c.4-1.5,1.1-2.7,2-3.6s2.1-1.3,3.7-1.3.7,0,1.1,0,.6.1.9.2v5.9c-.3-.1-.6-.2-1.1-.3-.4,0-.9,0-1.4,0-1.1,0-2.1.2-2.9.6s-1.4,1.1-1.8,1.9-.6,1.9-.6,3.1v13.8h-6.7,0Z"/>
        <path class="st11" d="M463.6,410.2c-1.1,0-1.9-.4-2.7-1.1s-1.1-1.6-1.1-2.7.4-1.9,1.1-2.7,1.6-1.1,2.7-1.1,1.9.4,2.7,1.1,1.1,1.6,1.1,2.7-.4,1.9-1.1,2.7-1.6,1.1-2.7,1.1Z"/>
      </g>
      <g class="st8">
        <path class="st11" d="M476.7,409.4v-33.3h7v33.3h-7ZM480.2,398.9v-5.4h8.2c2,0,3.6-.5,4.7-1.5s1.6-2.5,1.6-4.4h0c0-1.9-.6-3.4-1.6-4.4-1.1-1-2.7-1.5-4.7-1.5h-8.2v-5.5h9.9c2.4,0,4.4.5,6.2,1.4,1.7.9,3.2,2.3,4.1,4,1,1.7,1.4,3.7,1.4,6h0c0,2.3-.5,4.3-1.4,6-1,1.7-2.4,3-4.1,4-1.7.9-3.8,1.4-6.2,1.4h-9.9Z"/>
        <path class="st11" d="M504.1,409.4v-24.7h6.7v4.3h.1c.4-1.5,1.1-2.7,2-3.6s2.1-1.3,3.7-1.3.7,0,1.1,0,.6.1.9.2v5.9c-.3-.1-.6-.2-1.1-.3-.4,0-.9,0-1.4,0-1.1,0-2.1.2-2.9.6s-1.4,1.1-1.8,1.9-.6,1.9-.6,3.1v13.8h-6.7Z"/>
        <path class="st11" d="M526.9,409.7c-1.6,0-3.1-.3-4.4-.9s-2.2-1.5-2.9-2.7-1.1-2.4-1.1-3.9h0c0-1.6.4-2.9,1.1-3.9s1.9-1.9,3.3-2.5c1.4-.6,3.2-1,5.2-1.1l9.7-.6v4.2l-8.7.6c-1.3,0-2.3.4-2.9.9-.6.5-1,1.2-1,2.1h0c0,.9.4,1.6,1.1,2.1s1.6.8,2.8.8,1.9-.2,2.7-.6c.8-.4,1.4-.9,1.9-1.6s.7-1.4.7-2.3v-7.5c0-1.1-.4-1.9-1.1-2.6s-1.7-.9-3-.9-2.3.3-3,.8-1.2,1.1-1.4,2v.2h-6.2v-.3c.1-1.5.6-2.9,1.6-4.1.9-1.2,2.1-2.1,3.7-2.8,1.6-.6,3.4-1,5.6-1s4,.4,5.6,1c1.6.7,2.8,1.6,3.7,2.9.9,1.2,1.3,2.7,1.3,4.4v17h-6.7v-3.7h-.1c-.5.9-1.1,1.6-1.8,2.1-.7.6-1.6,1.1-2.5,1.4s-1.9.5-3,.5h0Z"/>
        <path class="st11" d="M555.5,409.9c-2.5,0-4.7-.5-6.5-1.6s-3.2-2.5-4.2-4.4-1.5-4.2-1.5-6.9h0c0-2.7.5-4.9,1.5-6.9,1-1.9,2.4-3.4,4.2-4.4s3.9-1.6,6.4-1.6,4.2.4,5.9,1.3c1.6.9,2.9,2,3.9,3.4.9,1.4,1.4,3,1.5,4.8h0c0,.1-6.3.1-6.3.1v-.2c-.2-1.1-.7-2.1-1.6-2.9-.8-.8-1.9-1.2-3.3-1.2s-2.1.3-2.9.9c-.8.6-1.4,1.5-1.9,2.6-.4,1.1-.6,2.5-.6,4.1h0c0,1.6.2,3,.6,4.2.4,1.1,1.1,2,1.9,2.6.8.6,1.8.9,2.9.9s2.4-.4,3.3-1.1c.8-.8,1.4-1.8,1.6-3v-.2h6.3c-.1,1.9-.6,3.6-1.6,5s-2.2,2.6-3.9,3.4c-1.6.9-3.6,1.3-5.7,1.3h0Z"/>
        <path class="st11" d="M578.5,409.9c-2.7,0-4.8-.6-6.1-1.7s-2-3.1-2-5.7v-12.8h-3.4v-5.1h3.4v-6h6.8v6h4.5v5.1h-4.5v12c0,1.1.3,1.9.8,2.4.5.4,1.3.7,2.3.7s.6,0,.8,0,.4,0,.6,0v4.9c-.4,0-.9.1-1.4.1s-1.1,0-1.9,0h0Z"/>
        <path class="st11" d="M587.8,381.4c-1,0-1.9-.4-2.6-1.1s-1.1-1.5-1.1-2.5.4-1.8,1.1-2.5,1.6-1,2.6-1,1.9.4,2.6,1c.7.7,1.1,1.5,1.1,2.5s-.4,1.8-1.1,2.5-1.6,1.1-2.6,1.1ZM584.4,409.4v-24.7h6.7v24.7h-6.7Z"/>
        <path class="st11" d="M604.6,409.9c-2.3,0-4.2-.4-5.8-1-1.6-.6-2.9-1.6-3.7-2.8-.9-1.1-1.4-2.6-1.6-4.1v-.2h6.6v.2c.3,1,.7,1.7,1.5,2.3.8.6,1.8.8,3.2.8s1.6,0,2.2-.3c.6-.2,1.1-.5,1.4-.9.4-.4.5-.9.5-1.4h0c0-.7-.2-1.2-.7-1.6-.5-.4-1.3-.7-2.5-1l-4.2-.9c-1.6-.4-2.9-.9-4-1.4-1.1-.6-1.9-1.4-2.4-2.4-.6-.9-.8-2-.8-3.3h0c0-1.6.4-3,1.3-4.2s2.1-2.1,3.7-2.7c1.6-.6,3.4-.9,5.5-.9s4,.4,5.6,1.1c1.5.7,2.7,1.6,3.5,2.8.8,1.2,1.3,2.5,1.3,3.9v.2h-6.2v-.2c-.1-.9-.6-1.6-1.3-2.2s-1.7-.9-2.9-.9-1.4.1-2,.4-1,.5-1.3.9c-.3.4-.4.9-.4,1.4h0c0,.4,0,.8.3,1.1s.6.6,1.1.9c.5.2,1.1.4,2,.6l4.2.9c2.6.6,4.4,1.4,5.6,2.4s1.7,2.5,1.7,4.4h0c0,1.6-.4,3.1-1.4,4.2s-2.2,2.1-3.8,2.8c-1.6.6-3.5,1-5.6,1h-.3Z"/>
        <path class="st11" d="M628.8,409.9c-2.5,0-4.7-.5-6.5-1.6-1.8-1-3.2-2.5-4.2-4.4s-1.5-4.2-1.5-6.8h0c0-2.7.5-4.9,1.5-6.9s2.4-3.4,4.2-4.5,3.9-1.6,6.3-1.6,4.5.5,6.2,1.5c1.8,1,3.2,2.4,4.1,4.3.9,1.9,1.4,4,1.4,6.5v2.1h-20.4v-4.3h17.2l-3.2,4v-2.6c0-1.4-.2-2.7-.6-3.7s-1.1-1.7-1.9-2.2-1.7-.7-2.8-.7-2,.3-2.8.8-1.4,1.2-1.9,2.2-.7,2.1-.7,3.6v2.7c0,1.4.2,2.5.7,3.5.4,1,1.1,1.7,1.9,2.2s1.9.8,3,.8,1.7-.1,2.4-.4c.6-.3,1.2-.6,1.6-1.1.4-.4.7-.9.9-1.4h0c0-.1,6.2-.1,6.2-.1v.3c-.3.9-.6,1.8-1.1,2.7-.6.9-1.3,1.8-2.1,2.5-.9.8-2,1.4-3.4,1.9s-2.9.7-4.7.7h.1Z"/>
        <path class="st11" d="M646,409.7c-1.1,0-1.9-.4-2.7-1.1s-1.1-1.6-1.1-2.7.4-1.9,1.1-2.7,1.6-1.1,2.7-1.1,1.9.4,2.7,1.1,1.1,1.6,1.1,2.7-.4,1.9-1.1,2.7-1.6,1.1-2.7,1.1Z"/>
      </g>
    </g>
    <g>
      <path d="M124.7,220.7c.8,1,1.2,2.1,1.2,3.6v56.3l5.3-5.6,15.2-16.4,4.6-5c1.2-1.2,2.6-2.3,4.3-2.3h17c.9,0,1.8.5,2.1,1.1.3.8.3,2-.4,2.7l-23.6,25.3-1.8,2.1,14.4,21.7,11.3,17c.5.7.2,1.9-.2,2.5-.3.5-1.1,1-2,1h-16.4c-1.9,0-3.3-1.6-4.3-3.2l-16.8-26c-2.8,3.1-5.7,6.3-8.7,9.3v16.7c0,1.7-1.4,3.2-3.1,3.2h-13.2c-1.9,0-3.2-.8-3.9-2.5v-98.7c1-.9,1.8-1.4,1.7-2.5v-.3h17.2Z"/>
      <path d="M640.3,279c-.8-5.8-3-11.1-6.4-15.9-5.8-8-14.9-12.7-24.8-13.1-9.9-.5-19.5,2.2-27,8.9-10.7,9.5-13.8,23.9-11.5,37.9,2,12,9.8,22.2,21.2,26.5,8,3,16.6,3.4,24.9,1.7,9.5-2,17.4-8.2,21.4-16.9.7-1.5-.2-2.8-1.6-3.3l-12.7-3.8c-.8-.2-1.8.7-2.3,1.3-2.6,3.4-6.1,5.7-10.3,6.5-10.2,1.6-19.8-3-21.7-13.6h47.3c3,0,3.4-1.9,4.2-3.9v-11.4c-.3-.1-.5-.3-.5-.7h0ZM589.6,280.5c2.2-9.5,10.4-14.5,19.8-13,7,1.3,11,6,12.4,13h-32.2Z"/>
      <path d="M265.7,352.6h-16.1c-.9-1-1.2-2.3-1.2-3.9v-9.9c.1-2.1,2.2-3.2,4.1-3.1,2.9.1,6.7,0,8.4-1.7,1.2-1.2,1.8-3,1.9-4.7l.4-5.2v-69.5c0-1.9,1.6-3.3,3.3-3.3h13.3c1.5,0,3.5,1.3,3.5,3.1v72.7c0,3.1-.5,6-1.1,8.9-1,4.5-3.3,8.5-6.6,11.5-2.7,2.4-5.9,3.8-9.3,4.8-.3,0-.4.2-.5.3h0Z"/>
      <path d="M228.1,324.2c-13.9,4.4-30.2,1.7-40.6-8.4-11-10.6-13.6-28.1-8.3-42.2,3.6-9.6,11-16.9,20.5-20.5,14.6-5.5,32.8-2.7,43.5,8.8,8.8,9.4,11.4,22.7,9,35.1-2.5,12.8-11.6,23.2-24.2,27.2h0ZM228,303.2c6.3-6.8,6.8-20,1.5-27.7-3.5-5-9.3-7.7-15.4-7.4-7.1.3-12.9,4.4-15.6,10.9-4.2,10-1.4,24.1,9.4,28.3,6.9,2.7,15,1.4,20.1-4.1h0Z"/>
      <path d="M322,325.2c-10.1-2.1-18.5-8.2-23.6-17-8.6-14.7-6.3-36.9,6.8-48.4,2.9-2.5,5.9-4.6,9.4-6.1,4.2-1.8,8.6-3,13.2-3.3,15.7-1.1,30.6,5.2,37.8,19.6,5.5,11,5.7,24.3.5,35.5-7.7,16.7-26.5,23.3-44.1,19.6h0ZM343.2,304.5c6.6-5.4,7.9-16.6,5.1-24.6-2.6-7.2-9.1-11.8-16.6-11.9-7.7,0-14.1,4.3-16.8,11.4-3,8-1.8,18.9,4.5,24.6,6.7,6,16.9,6.1,23.8.4h0Z"/>
      <path d="M399.5,284.4v5.1s0,31.3,0,31.3c0,1.7-1.2,3.6-3,3.6h-13.2c-1.6,0-3.3-1.2-3.3-3v-62.4c0-1.9-.5-3.4-.2-5.2.3-1.4,1.4-2.7,3-2.7h12.2c1.6.2,2.9,1.2,3,2.8l.4,5.5,4.5-4.3c2.4-1.8,4.9-3.1,7.8-4.1,12.8-2.8,25.8.4,31.2,13.1,1.7,4.1,2.6,8.5,2.6,13.1l.2,43.9c0,2.2-1.5,3.6-3.6,3.6h-12.7c-1.6,0-3.2-1.3-3.2-3.2v-39.7c-.1-2.4-.6-4.6-1.4-6.7-2.1-5.6-7.2-7.6-13.1-6.9-5.3.6-9.3,4.1-10.7,9.2-.6,2.4-.7,4.6-.7,7.3h0Z"/>
      <path d="M565.8,321.1c0,1.9-1.1,3.8-3,3.9l-8.4.3c-8.6-.4-17.1-3.1-20.4-11.5-1.3-3.3-1.8-6.7-1.8-10.3v-35c-.1,0-6.7,0-6.7,0-1.6,0-2.6-1.2-2.6-2.8v-11.1c0-1.9.8-3.5,3-3.5h6.3s0-18.2,0-18.2c0-1.8,1.5-3.3,3.3-3.3h12.9c2,0,3.6,1.5,3.6,3.5v17.9s10.7,0,10.7,0c1.8,0,3,1.5,3,3.3v11.4c-.1,1.6-1.1,2.7-2.7,2.7h-11s0,33.7,0,33.7c0,3.2,2.4,5.4,5.4,5.3l4.9-.2c1.8,0,3.4,1.3,3.4,3.2v10.6c.1,0,.1,0,.1,0Z"/>
      <path class="st17" d="M490.1,313.4l-.6,2-1.9,9.1c-1.5-3.2-1.3-6.4-2.3-9.4l-1.6-4.8-1.6-3.2c-1.4-2.7-2.6-5.2-4.7-7.3l-3.2-3.2-4.2-3.2c-5.9-3.5-12.4-5.5-19.2-6.5-.3,0-.3-.7,0-.8.2-.1.4-.2.8-.3l3.9-.6c4.7-1.3,9.4-2.5,13.6-5l3.8-2.7c1.6-1.1,3.2-2.5,4.3-4l2.9-3.8,3.1-5.6,2.1-5.8,1.6-8c0-.4.6-.4.8-.3.2.1.3.5.4.8.7,5.1,3.1,13.7,5.9,17.7,1.6,2.2,3.1,4.9,5.2,6.5l5,3.9,2.7,1.7,2.8,1.3,4.7,2,3.8.8c3.5,1.7,6.3.4,5.7,1.7-.1.3-.3.6-.9.6h-2.5c0,.1-3.7,1.4-3.7,1.4-4.9.7-13.4,5.1-16.8,8.7l-4.1,4.5-3,5.1c-1.3,2.2-2.1,4.3-2.8,6.6h0Z"/>
      <circle cx="273.3" cy="230.9" r="11.9"/>
    </g>
  </g>
</svg>