<?xml version="1.0" encoding="UTF-8"?>
<svg id="Layer_1" data-name="Layer 1" xmlns="http://www.w3.org/2000/svg" viewBox="0 0 900 620">
  <defs>
    <style>
      .cls-1 {
        font-family: SFProRounded-Bold, 'SF Pro Rounded';
        font-size: 30px;
        font-weight: 700;
      }

      .cls-1, .cls-2, .cls-3, .cls-4, .cls-5 {
        fill: #272331;
      }

      .cls-1, .cls-2, .cls-4, .cls-6, .cls-5 {
        isolation: isolate;
      }

      .cls-7 {
        fill: #ef5b62;
        stroke: #fff;
      }

      .cls-7, .cls-8 {
        stroke-width: 3px;
      }

      .cls-9 {
        fill: none;
        stroke: #7046c7;
        stroke-linecap: round;
        stroke-width: 6px;
      }

      .cls-10 {
        fill: #fff0a8;
      }

      .cls-8 {
        stroke: #272331;
      }

      .cls-2 {
        font-family: SFProRounded-Medium, 'SF Pro Rounded';
        font-weight: 500;
      }

      .cls-2, .cls-6 {
        font-size: 20px;
      }

      .cls-11 {
        fill: #fff;
      }

      .cls-12 {
        stroke: #e6e0f0;
      }

      .cls-13 {
        fill: #f6f0ff;
        fill-rule: evenodd;
      }

      .cls-14 {
        letter-spacing: -.02em;
      }

      .cls-15 {
        letter-spacing: -.02em;
      }

      .cls-16 {
        letter-spacing: -.01em;
      }

      .cls-4 {
        font-size: 16px;
      }

      .cls-4, .cls-5 {
        font-family: ArialRoundedMTBold, 'Arial Rounded MT Bold';
      }

      .cls-17 {
        letter-spacing: -.06em;
      }

      .cls-6 {
        fill: #7046c7;
        font-family: SFProRounded-Semibold, 'SF Pro Rounded';
        font-weight: 600;
      }

      .cls-18 {
        letter-spacing: 0em;
      }

      .cls-5 {
        font-size: 18px;
      }

      .cls-19 {
        fill: #fbfaff;
        stroke: #d9d1ea;
        stroke-width: 2px;
      }
    </style>
  </defs>
  <rect class="cls-11" width="900" height="620"/>
  <text class="cls-1" transform="translate(316.89 60)"><tspan class="cls-14" x="0" y="0">P</tspan><tspan x="18.02" y="0">ositi</tspan><tspan class="cls-16" x="75.7" y="0">v</tspan><tspan x="91.1" y="0">e Cor</tspan><tspan class="cls-14" x="163.15" y="0">r</tspan><tspan x="173.55" y="0">elation</tspan></text>
  <rect class="cls-19" x="130" y="92" width="600" height="430" rx="8" ry="8"/>
  <path class="cls-13" d="M267.4,308.5c7.36-2.36,15.98-1.68,23.65-2.92,16.21-2.62,32.31-6.58,47.48-12.95,18.6-7.81,35.89-18.99,49.35-34.14,26.86-30.24,39.36-77.34,38.1-117.21,2.33-.79,4.44-.87,6.88-.65,2.29,43.88,11.11,93.67,45.35,124.74,13.07,11.86,27.96,20.26,44.22,26.88,16.09,6.54,33.46,10.61,50.55,13.51,4.89.83,17.41-.57,20.89,2.42.37,1.95,1.36,5.23.3,7-38.86-.1-86.02,14.64-114.26,41.94-14.03,13.57-24.77,31.38-31.92,49.4-7.13,17.96-11.52,37.49-13.72,56.67-.84,7.33.64,15.34-.85,22.48-2.37.63-4.82-.16-6.85-1.36-1.68-5.41-.76-11.6-1.14-17.22-.63-9.36-2.31-18.76-4.17-27.94-7.69-38.1-24.96-71.21-56.78-94.33-21.06-15.29-47.79-22.5-73.11-26.73-6.42-1.08-12.93-1.86-19.39-2.49-.86-.08-4.74.38-5.09-.82-.44-1.49.35-4.76.51-6.28h0Z"/>
  <g>
    <path class="cls-12" d="M190,92v430M250,92v430M310,92v430M370,92v430M430,92v430M490,92v430M550,92v430M610,92v430M670,92v430"/>
    <path class="cls-12" d="M130,135h600M130,178h600M130,221h600M130,264h600M130,307h600M130,350h600M130,393h600M130,436h600M130,479h600"/>
  </g>
  <g>
    <path class="cls-8" d="M130,522h620"/>
    <path class="cls-8" d="M130,522V72"/>
  </g>
  <path class="cls-3" d="M750,522l-12-7v14l12-7ZM130,72l-7,12h14l-7-12Z"/>
  <g>
    <text class="cls-4" transform="translate(125.25 544)"><tspan x="0" y="0">0</tspan></text>
    <text class="cls-4" transform="translate(185.25 544)"><tspan x="0" y="0">1</tspan></text>
    <text class="cls-4" transform="translate(245.25 544)"><tspan x="0" y="0">2</tspan></text>
    <text class="cls-4" transform="translate(305.25 544)"><tspan x="0" y="0">3</tspan></text>
    <text class="cls-4" transform="translate(365.25 544)"><tspan x="0" y="0">4</tspan></text>
    <text class="cls-4" transform="translate(425.25 544)"><tspan x="0" y="0">5</tspan></text>
    <text class="cls-4" transform="translate(485.25 544)"><tspan x="0" y="0">6</tspan></text>
    <text class="cls-4" transform="translate(545.25 544)"><tspan x="0" y="0">7</tspan></text>
    <text class="cls-4" transform="translate(605.25 544)"><tspan x="0" y="0">8</tspan></text>
    <text class="cls-4" transform="translate(665.25 544)"><tspan x="0" y="0">9</tspan></text>
    <text class="cls-4" transform="translate(720.49 544)"><tspan x="0" y="0">10</tspan></text>
    <text class="cls-4" transform="translate(103.25 528)"><tspan x="0" y="0">0</tspan></text>
    <text class="cls-4" transform="translate(103.25 485)"><tspan x="0" y="0">1</tspan></text>
    <text class="cls-4" transform="translate(103.25 442)"><tspan x="0" y="0">2</tspan></text>
    <text class="cls-4" transform="translate(103.25 399)"><tspan x="0" y="0">3</tspan></text>
    <text class="cls-4" transform="translate(103.25 356)"><tspan x="0" y="0">4</tspan></text>
    <text class="cls-4" transform="translate(103.25 313)"><tspan x="0" y="0">5</tspan></text>
    <text class="cls-4" transform="translate(103.25 270)"><tspan x="0" y="0">6</tspan></text>
    <text class="cls-4" transform="translate(103.25 227)"><tspan x="0" y="0">7</tspan></text>
    <text class="cls-4" transform="translate(103.25 184)"><tspan x="0" y="0">8</tspan></text>
    <text class="cls-4" transform="translate(103.25 141)"><tspan x="0" y="0">9</tspan></text>
    <text class="cls-4" transform="translate(98.49 98)"><tspan x="0" y="0">10</tspan></text>
  </g>
  <text class="cls-5" transform="translate(765 528)"><tspan x="0" y="0">x</tspan></text>
  <text class="cls-5" transform="translate(122 60)"><tspan x="0" y="0">y</tspan></text>
  <line class="cls-9" x1="139.89" y1="512.19" x2="721.5" y2="159"/>
  <g>
    <circle class="cls-7" cx="202" cy="436" r="9"/>
    <circle class="cls-7" cx="242" cy="419" r="9"/>
    <circle class="cls-7" cx="275" cy="442" r="9"/>
    <circle class="cls-7" cx="315" cy="378" r="9"/>
    <circle class="cls-7" cx="350" cy="394" r="9"/>
    <circle class="cls-7" cx="390" cy="343" r="9"/>
    <circle class="cls-7" cx="425" cy="359" r="9"/>
    <circle class="cls-7" cx="460" cy="299" r="9"/>
    <circle class="cls-7" cx="495" cy="317" r="9"/>
    <circle class="cls-7" cx="535" cy="257" r="9"/>
    <circle class="cls-7" cx="570" cy="273" r="9"/>
    <circle class="cls-7" cx="608" cy="216" r="9"/>
    <circle class="cls-7" cx="650" cy="231" r="9"/>
    <circle class="cls-7" cx="685" cy="175" r="9"/>
  </g>
  <g>
    <rect class="cls-10" x="477.98" y="147" width="180.01" height="42" rx="12" ry="12"/>
    <text class="cls-2" transform="translate(504.8 175)"><tspan x="0" y="0">Line of Best Fit</tspan></text>
  </g>
  <text class="cls-6" transform="translate(333.11 585)"><tspan class="cls-18" x="0" y="0">A</tspan><tspan x="13.31" y="0">s x inc</tspan><tspan class="cls-15" x="67.66" y="0">r</tspan><tspan x="74.14" y="0">eases</tspan><tspan class="cls-17" x="126.22" y="0">,</tspan><tspan x="130.5" y="0" xml:space="preserve"> y inc</tspan><tspan class="cls-15" x="175.21" y="0">r</tspan><tspan x="181.7" y="0">eases</tspan></text>
</svg>