<?xml version="1.0" encoding="UTF-8"?>
<svg id="Layer_1" data-name="Layer 1" xmlns="http://www.w3.org/2000/svg" viewBox="0 0 4000 4000">
  <defs>
    <style>
      .cls-1 {
        fill: #421b4e;
        fill-rule: evenodd;
      }

      .cls-2 {
        fill: #fddcf2;
      }
    </style>
  </defs>
  <g id="Layer_1-2" data-name="Layer 1" shape-rendering="geometricPrecision">
    <rect class="cls-2" x="0" y="0" width="4000" height="4000" rx="867.52" ry="867.52"/>
    <path class="cls-1" d="M691.36,1962.42c59.03-18.91,128.07-13.48,189.48-23.42,129.88-21.01,258.9-52.7,380.46-103.81,149.03-62.63,287.59-152.17,395.49-273.64,215.27-242.34,315.42-619.76,305.35-939.28,18.64-6.3,35.59-6.99,55.15-5.27,18.31,351.66,89.05,750.65,363.4,999.59,104.71,95.03,224.03,162.38,354.39,215.43,128.97,52.45,268.1,85.01,405.13,108.23,39.19,6.66,139.51-4.58,167.37,19.4,2.92,15.66,10.89,41.95,2.43,56.11-311.38-.79-689.33,117.29-915.62,336.08-112.41,108.73-198.51,251.48-255.79,395.85-57.12,143.98-92.32,300.47-109.95,454.17-6.74,58.73,5.13,122.89-6.82,180.17-18.97,5.02-38.62-1.31-54.88-10.89-13.43-43.36-6.06-92.92-9.12-137.98-5.05-74.97-18.56-150.32-33.43-223.89-61.65-305.35-199.96-570.64-455.01-755.89-168.76-122.56-382.94-180.33-585.84-214.23-51.42-8.6-103.57-14.93-155.45-19.95-6.93-.65-37.99,3.06-40.83-6.52-3.52-11.95,2.78-38.12,4.09-50.27h0Z"/>
  </g>
</svg>