<?xml version="1.0" encoding="UTF-8"?>
<svg id="Layer_1" xmlns="http://www.w3.org/2000/svg" version="1.1" viewBox="0 0 1600 1000">
  <!-- Generator: Adobe Illustrator 30.3.0, SVG Export Plug-In . SVG Version: 2.1.3 Build 182)  -->
  <defs>
    <style>
      .st0 {
        fill: #fff0b8;
        stroke: #e0a800;
      }

      .st0, .st1, .st2 {
        stroke-width: 5px;
      }

      .st3, .st4, .st5, .st6, .st7, .st8, .st9 {
        font-family: SFProRounded-Bold, 'SF Pro Rounded';
        font-weight: 700;
      }

      .st3, .st4, .st6 {
        fill: #272331;
      }

      .st3, .st4, .st6, .st7, .st9 {
        isolation: isolate;
      }

      .st3, .st9 {
        font-size: 30px;
      }

      .st1 {
        fill: #d9f1ef;
        stroke: #2aa6a3;
      }

      .st10, .st11, .st12, .st13 {
        fill: none;
      }

      .st10, .st11, .st13 {
        stroke-width: 8px;
      }

      .st10, .st12 {
        stroke: #272331;
      }

      .st11, .st2 {
        stroke: #7048c8;
      }

      .st12 {
        stroke-width: 7px;
      }

      .st4 {
        font-size: 33px;
      }

      .st13 {
        stroke: #ef4552;
      }

      .st5 {
        fill: #7046c7;
      }

      .st5, .st8 {
        font-size: 34.6px;
      }

      .st6 {
        font-size: 35px;
      }

      .st14 {
        fill: #fff;
      }

      .st15 {
        fill: #e0a800;
      }

      .st16 {
        fill: #fbfafb;
        fill-rule: evenodd;
      }

      .st2 {
        fill: #e7ddfb;
      }

      .st7 {
        fill: #171625;
        font-size: 58px;
      }

      .st8 {
        fill: #ef5b62;
      }

      .st9 {
        fill: #7048c8;
      }
    </style>
  </defs>
  <rect class="st14" y="0" width="1600" height="1000"/>
  <path class="st16" d="M278.7,481.4c21.8-5.9,47.2-4.2,69.9-7.3,47.9-6.6,95.5-16.5,140.4-32.6,55-19.7,106.1-47.8,145.9-85.9,79.4-76.1,116.4-194.6,112.7-294.9,6.9-2,13.1-2.2,20.4-1.6,6.7,110.4,32.9,235.7,134.1,313.9,38.6,29.8,82.7,51,130.8,67.6,47.6,16.5,98.9,26.7,149.4,34,14.5,2.1,51.5-1.5,61.7,6.1,1.1,4.9,4,13.2.9,17.6-114.9-.3-254.3,36.8-337.8,105.5-41.5,34.1-73.2,79-94.4,124.3-21.1,45.2-34.1,94.3-40.6,142.6-2.5,18.5,1.9,38.6-2.5,56.6-7,1.6-14.2-.4-20.2-3.4-5-13.6-2.2-29.2-3.4-43.3-1.9-23.5-6.8-47.2-12.3-70.3-22.7-95.9-73.8-179.2-167.9-237.3-62.3-38.5-141.3-56.6-216.2-67.3-19-2.7-38.2-4.7-57.4-6.3-2.6-.2-14,1-15.1-2-1.3-3.8,1-12,1.5-15.8h0v-.2h0Z"/>
  <g>
    <text class="st7" transform="translate(648.7 155.7)"><tspan x="0" y="0">Angle Rules</tspan></text>
    <text class="st9" transform="translate(517.9 207.7)"><tspan x="0" y="0">Use geometry to calculate missing angles</tspan></text>
  </g>
  <g>
    <rect class="st2" x="90" y="317.5" width="430" height="590" rx="28" ry="28"/>
    <rect class="st1" x="585" y="317.5" width="430" height="590" rx="28" ry="28"/>
    <rect class="st0" x="1080" y="317.5" width="430" height="590" rx="28" ry="28"/>
    <text class="st3" transform="translate(222.8 377.5)"><tspan x="0" y="0">Straight line</tspan></text>
    <text class="st3" transform="translate(700.2 377.5)"><tspan x="0" y="0">Around a point</tspan></text>
    <text class="st3" transform="translate(1167.4 377.5)"><tspan x="0" y="0">Vertically opposite</tspan></text>
    <text class="st6" transform="translate(208.5 492.5)"><tspan x="0" y="0">a + b = 180°</tspan></text>
    <line class="st12" x1="800" y1="562.5" x2="800" y2="432.5"/>
    <line class="st12" x1="800" y1="562.5" x2="930" y2="562.5"/>
    <line class="st12" x1="800" y1="562.5" x2="800" y2="692.5"/>
    <line class="st12" x1="800" y1="562.5" x2="670" y2="562.5"/>
    <circle class="st15" cx="800" cy="562.5" r="14"/>
    <text class="st6" transform="translate(683.5 820.4)"><tspan x="0" y="0">angles around </tspan><tspan x="2.7" y="42">a point = 360°</tspan></text>
    <text class="st4" transform="translate(1163.8 820.4)"><tspan x="0" y="0">vertically opposite </tspan><tspan x="19" y="39.6">angles are equal</tspan></text>
    <g>
      <path class="st11" d="M320.9,674.2c-33.7-.4-64,20.4-75.9,51.9"/>
      <path class="st13" d="M384.4,726.1c-4.8-26.2-29.9-47.4-62.6-53.1"/>
      <line class="st10" x1="297.5" y1="725" x2="358" y2="596.8"/>
      <line class="st10" x1="137.5" y1="725" x2="457.5" y2="725"/>
    </g>
    <g>
      <path class="st11" d="M1254.5,657c-27.3-27.3-27.3-71.7,0-99h0"/>
      <path class="st11" d="M1355.3,657c27.3-27.3,27.3-71.7,0-99h0"/>
      <line class="st10" x1="1160" y1="462.5" x2="1450" y2="752.5"/>
      <line class="st10" x1="1450" y1="462.5" x2="1160" y2="752.5"/>
    </g>
    <text class="st5" transform="translate(249.1 672.9) scale(1 1)"><tspan x="0" y="0">a</tspan></text>
    <text class="st5" transform="translate(249.1 672.9) scale(1 1)"><tspan x="0" y="0">a</tspan></text>
    <text class="st8" transform="translate(388.1 680.6) scale(1 1)"><tspan x="0" y="0">b</tspan></text>
  </g>
</svg>