<?xml version="1.0" encoding="UTF-8"?>
<svg id="Layer_1" xmlns="http://www.w3.org/2000/svg" version="1.1" viewBox="0 0 1600 1000">
  <!-- Generator: Adobe Illustrator 30.3.0, SVG Export Plug-In . SVG Version: 2.1.3 Build 182)  -->
  <defs>
    <style>
      .st0 {
        fill: #171625;
        font-size: 54px;
      }

      .st0, .st1, .st2, .st3, .st4, .st5, .st6, .st7, .st8, .st9, .st10, .st11, .st12, .st13, .st14 {
        font-family: SFProRounded-Bold, 'SF Pro Rounded';
        font-weight: 700;
        isolation: isolate;
      }

      .st1, .st2 {
        fill: #272331;
      }

      .st1, .st3, .st10 {
        font-size: 28px;
      }

      .st15, .st16 {
        stroke: #e0a800;
      }

      .st15, .st16, .st17, .st18 {
        stroke-width: 5px;
      }

      .st15, .st19 {
        fill: none;
      }

      .st16, .st20 {
        fill: #fff0b8;
      }

      .st2 {
        font-size: 30px;
      }

      .st21, .st17 {
        fill: #d9f1ef;
        stroke: #2aa6a3;
      }

      .st21, .st19, .st22 {
        stroke-width: 6px;
      }

      .st19, .st18, .st22 {
        stroke: #7048c8;
      }

      .st4 {
        font-size: 42px;
      }

      .st5 {
        font-size: 22px;
      }

      .st5, .st13 {
        fill: #a87500;
      }

      .st6 {
        font-size: 34px;
      }

      .st7, .st9 {
        font-size: 24px;
      }

      .st7, .st10, .st14 {
        fill: #218d8a;
      }

      .st23 {
        fill: #f4f1fa;
        stroke: #d8ccef;
        stroke-width: 4px;
      }

      .st8, .st9, .st11, .st12 {
        fill: #7048c8;
      }

      .st8, .st14 {
        font-size: 35px;
      }

      .st24 {
        fill: #fff;
      }

      .st11 {
        font-size: 32px;
      }

      .st25 {
        fill: #fbfafb;
        fill-rule: evenodd;
      }

      .st18, .st22 {
        fill: #e7ddfb;
      }

      .st12, .st13 {
        font-size: 29px;
      }
    </style>
  </defs>
  <rect class="st24" y="0" width="1600" height="1000"/>
  <path class="st25" d="M317.2,488.1c21.8-5.9,47.2-4.2,69.9-7.3,47.9-6.6,95.5-16.5,140.4-32.6,55-19.7,106.1-47.8,145.9-85.9,79.4-76.1,116.4-194.6,112.7-294.9,6.9-2,13.1-2.2,20.4-1.6,6.7,110.4,32.9,235.7,134.1,313.9,38.6,29.8,82.7,51,130.8,67.6,47.6,16.5,98.9,26.7,149.4,34,14.5,2.1,51.5-1.5,61.7,6.1,1.1,4.9,4,13.2.9,17.6-114.9-.3-254.3,36.8-337.8,105.5-41.5,34.1-73.2,79-94.4,124.3-21.1,45.2-34.1,94.3-40.6,142.6-2.5,18.5,1.9,38.6-2.5,56.6-7,1.6-14.2-.4-20.2-3.4-5-13.6-2.2-29.2-3.4-43.3-1.9-23.5-6.8-47.2-12.3-70.3-22.7-95.9-73.8-179.2-167.9-237.3-62.3-38.5-141.3-56.6-216.2-67.3-19-2.7-38.2-4.7-57.4-6.3-2.6-.2-14,1-15.1-2-1.3-3.8,1-12,1.5-15.8h0v-.2h0Z"/>
  <g>
    <text class="st0" transform="translate(388.3 162)"><tspan x="0" y="0">Prime Factor Trees, HCF, and LCM</tspan></text>
    <text class="st12" transform="translate(550.8 217)"><tspan x="0" y="0">Find shared prime factors of 12 and 18</tspan></text>
  </g>
  <circle class="st18" cx="289" cy="349" r="58"/>
  <text class="st4" transform="translate(264.6 365)"><tspan x="0" y="0">12</tspan></text>
  <line class="st19" x1="259" y1="399" x2="199" y2="479"/>
  <line class="st19" x1="319" y1="399" x2="379" y2="479"/>
  <circle class="st16" cx="189" cy="529" r="48"/>
  <circle class="st16" cx="389" cy="529" r="48"/>
  <text class="st6" transform="translate(178.5 540)"><tspan x="0" y="0">3</tspan></text>
  <text class="st6" transform="translate(378.5 540)"><tspan x="0" y="0">4</tspan></text>
  <line class="st15" x1="389" y1="579" x2="349" y2="639"/>
  <line class="st15" x1="389" y1="579" x2="429" y2="639"/>
  <circle class="st17" cx="344" cy="679" r="38"/>
  <circle class="st17" cx="434" cy="679" r="38"/>
  <text class="st3" transform="translate(335.2 689)"><tspan x="0" y="0">2</tspan></text>
  <text class="st3" transform="translate(425.2 689)"><tspan x="0" y="0">2</tspan></text>
  <circle class="st22" cx="789" cy="519" r="155"/>
  <circle class="st21" cx="1039" cy="519" r="155"/>
  <ellipse class="st20" cx="914" cy="519" rx="80" ry="130"/>
  <text class="st8" transform="translate(769.5 444)"><tspan x="0" y="0">12</tspan></text>
  <text class="st14" transform="translate(1019.5 444)"><tspan x="0" y="0">18</tspan></text>
  <text class="st13" transform="translate(889.8 504)"><tspan x="0" y="0">2, 3</tspan></text>
  <text class="st5" transform="translate(877.9 549)"><tspan x="0" y="0">shared</tspan></text>
  <text class="st9" transform="translate(769 589)"><tspan x="0" y="0">2, 2</tspan></text>
  <text class="st7" transform="translate(1019 589)"><tspan x="0" y="0">3, 3</tspan></text>
  <g>
    <rect class="st23" x="1158.9" y="334" width="300" height="390" rx="26" ry="26"/>
    <text class="st1" transform="translate(1281.1 394)"><tspan x="0" y="0">HCF</tspan></text>
    <text class="st11" transform="translate(1245.6 439)"><tspan x="0" y="0">2 × 3 = 6</tspan></text>
    <text class="st1" transform="translate(1279.7 539)"><tspan x="0" y="0">LCM</tspan></text>
    <text class="st10" transform="translate(1235.1 584)"><tspan x="0" y="0">2² × 3² = 36</tspan></text>
  </g>
  <text class="st2" transform="translate(332.8 879)"><tspan x="0" y="0">HCF uses shared primes. LCM uses the highest power of every prime.</tspan></text>
</svg>